<?xml version="1.0" encoding="UTF-8" standalone="no"?>
<!-- Created with Inkscape (http://www.inkscape.org/) -->

<svg
   xmlns:dc="http://purl.org/dc/elements/1.1/"
   xmlns:cc="http://creativecommons.org/ns#"
   xmlns:rdf="http://www.w3.org/1999/02/22-rdf-syntax-ns#"
   xmlns:svg="http://www.w3.org/2000/svg"
   xmlns="http://www.w3.org/2000/svg"
   xmlns:sodipodi="http://sodipodi.sourceforge.net/DTD/sodipodi-0.dtd"
   xmlns:inkscape="http://www.inkscape.org/namespaces/inkscape"
   width="531.87915mm"
   height="158.48929mm"
   viewBox="0 0 531.87915 158.48929"
   version="1.1"
   id="svg8"
   inkscape:version="0.92.4 (5da689c313, 2019-01-14)"
   sodipodi:docname="cocos2d.svg">
  <defs
     id="defs2" />
  <sodipodi:namedview
     id="base"
     pagecolor="#ffffff"
     bordercolor="#666666"
     borderopacity="1.0"
     inkscape:pageopacity="0.0"
     inkscape:pageshadow="2"
     inkscape:zoom="0.35"
     inkscape:cx="1111.2665"
     inkscape:cy="296.90912"
     inkscape:document-units="mm"
     inkscape:current-layer="g3744"
     showgrid="false"
     inkscape:window-width="1440"
     inkscape:window-height="837"
     inkscape:window-x="-8"
     inkscape:window-y="-8"
     inkscape:window-maximized="1"
     fit-margin-top="0"
     fit-margin-left="0"
     fit-margin-right="0"
     fit-margin-bottom="0" />
  <metadata
     id="metadata5">
    <rdf:RDF>
      <cc:Work
         rdf:about="">
        <dc:format>image/svg+xml</dc:format>
        <dc:type
           rdf:resource="http://purl.org/dc/dcmitype/StillImage" />
        <dc:title></dc:title>
      </cc:Work>
    </rdf:RDF>
  </metadata>
  <g
     inkscape:label="Layer 1"
     inkscape:groupmode="layer"
     id="layer1"
     transform="translate(212.99614,-95.416143)">
    <g
       id="g3744"
       transform="translate(-55.016834,53.744778)">
      <path
         style="fill:#a59f92;stroke-width:0.3097561"
         d="m -153.95248,199.64233 c -1.42867,-0.61643 -2.08059,-1.21191 -3.14443,-2.8722 l -0.8824,-1.3771 V 128.27197 61.150913 l 0.86526,-1.656302 c 0.53962,-1.03294 1.36538,-2.008029 2.1941,-2.590859 l 1.32884,-0.934558 6.71139,-0.198711 c 3.69126,-0.109292 16.25962,-0.215969 27.92968,-0.237061 12.27822,-0.02219 21.407717,-0.15818 21.667869,-0.322755 0.526086,-0.33281 0.407035,-1.163821 -1.23261,-8.603869 -0.571627,-2.593831 -0.956431,-4.798951 -0.855112,-4.900268 0.602305,-0.602305 11.700941,6.66121 18.2101,11.917621 l 2.323171,1.876056 177.645133,0.04515 c 97.704819,0.02483 198.563989,0.130354 224.131469,0.234494 l 46.48634,0.189345 1.29091,0.854474 c 0.70999,0.469961 1.67541,1.435503 2.14537,2.145649 l 0.85447,1.291176 0.0795,67.480295 c 0.0777,65.95821 0.0661,67.50631 -0.5137,68.63362 -0.76423,1.4858 -2.04427,2.67209 -3.55303,3.2928 -1.09418,0.45015 -24.07257,0.49123 -261.8988,0.46818 -231.79071,-0.0225 -260.8196,-0.0771 -261.78353,-0.49306 z M 34.126905,173.62847 c 2.161157,-0.11023 4.11262,-0.31377 4.336586,-0.45232 0.305816,-0.18919 0.405074,-1.33385 0.398628,-4.59708 -0.0072,-3.65266 -0.09171,-4.42829 -0.530187,-4.86677 -0.465706,-0.46571 -1.925435,-0.54355 -13.620689,-0.72636 -7.204494,-0.11261 -13.327369,-0.30609 -13.606394,-0.42994 -0.279022,-0.12386 -0.59265,-0.65188 -0.696951,-1.17338 -0.104298,-0.5215 -0.189636,-15.82391 -0.189636,-34.00536 V 94.32009 l 0.651566,-0.590082 c 0.611012,-0.553358 1.456526,-0.602377 13.585454,-0.78762 7.113639,-0.108644 13.221943,-0.288962 13.574008,-0.400704 0.526821,-0.167206 0.678081,-0.557654 0.854599,-2.205968 0.117968,-1.101539 0.115192,-3.19479 -0.0062,-4.651669 C 38.670245,83.193707 38.60782,83.015966 37.834588,82.714093 37.290934,82.501836 31.920191,82.435675 21.988997,82.518897 8.0224813,82.635932 6.8786789,82.686175 5.7268012,83.233254 4.0210548,84.043387 1.1641618,86.959217 0.18722815,88.887105 l -0.81043042,1.599298 v 37.501087 37.50108 l 0.80045008,1.57961 c 1.00458559,1.98246 3.24203449,4.39565 5.07425749,5.47282 1.3609847,0.80014 1.5967587,0.83111 7.5996837,0.99843 9.862675,0.27491 17.042301,0.30495 21.275716,0.089 z m 50.234587,-0.80379 c 2.413354,-1.27743 4.109222,-2.9733 5.386653,-5.38665 l 1.006707,-1.90189 V 128.01127 90.486403 l -0.80045,-1.579613 c -1.122705,-2.21555 -3.367904,-4.501072 -5.458243,-5.556272 l -1.7773,-0.897178 H 68.141191 53.563523 l -1.590016,0.805722 c -2.13469,1.081731 -4.592311,3.603817 -5.610247,5.757412 l -0.832801,1.761918 v 37.222058 37.22205 l 1.095103,2.08399 c 1.343781,2.55722 2.807431,4.02381 5.42124,5.43216 l 2.00195,1.07867 14.205422,0.007 14.205425,0.007 1.901893,-1.00671 z m -25.875139,-10.059 c -0.625906,-0.066 -1.322857,-0.3428 -1.548781,-0.61499 -0.335639,-0.40437 -0.410771,-6.65578 -0.410771,-34.17817 0,-32.688587 0.01744,-33.702545 0.590083,-34.33538 0.578017,-0.638761 0.806865,-0.652092 11.193034,-0.652092 H 78.91287 l 0.577698,0.851829 c 0.55477,0.818019 0.577698,2.15501 0.577698,33.685973 0,25.89984 -0.08379,33.07019 -0.396729,33.95183 -0.390779,1.10093 -0.427928,1.12063 -2.478049,1.31426 -2.166614,0.20464 -16.719176,0.18654 -18.707135,-0.0233 z m 71.977267,10.86158 c 3.18475,-0.1113 5.94307,-0.29668 6.12959,-0.41196 0.21963,-0.13573 0.34128,-1.77283 0.34525,-4.64631 0.005,-3.65086 -0.0812,-4.52417 -0.48718,-4.93045 -0.43087,-0.43126 -2.16141,-0.51334 -13.67498,-0.64862 -13.04129,-0.15322 -13.18744,-0.162 -13.72298,-0.82373 -0.47624,-0.58847 -0.56592,-1.76117 -0.74614,-9.75732 -0.24997,-11.0906 -0.21602,-40.78729 0.0581,-50.79621 0.175,-6.390377 0.27041,-7.401898 0.74787,-7.928923 0.52138,-0.575509 1.17159,-0.612249 13.74338,-0.776565 11.33605,-0.148166 13.26361,-0.239987 13.67506,-0.65143 0.63069,-0.630688 0.72931,-8.644852 0.11395,-9.259768 -0.30031,-0.300098 -3.86825,-0.387756 -15.78263,-0.387756 h -15.3946 l -1.77008,0.869222 c -2.06225,1.012692 -3.949563,3.014476 -5.232055,5.549383 l -0.896648,1.772267 v 37.36852 37.36853 l 0.980843,1.84024 c 1.184888,2.22308 2.78151,3.92318 4.7969,5.1078 1.44206,0.84762 1.70392,0.88952 6.6125,1.05801 8.08902,0.27767 14.26064,0.30327 20.50389,0.0851 z m 47.02295,-0.0727 c 3.32848,-0.19141 4.44273,-0.37474 5.46109,-0.89848 1.80662,-0.92916 3.84144,-3.07033 5.02102,-5.2834 l 1.00866,-1.89246 -0.0923,-37.56405 -0.0923,-37.564059 -0.66204,-1.431817 c -0.88767,-1.91975 -2.66424,-3.840486 -4.88414,-5.280471 l -1.82914,-1.186493 h -14.67423 -14.6742 l -1.83631,0.926958 c -2.46485,1.244256 -3.83325,2.502649 -5.13305,4.720429 l -1.0853,1.851781 0.0956,37.990052 c 0.0745,29.62573 0.18194,38.24519 0.48776,39.14888 0.53069,1.56815 3.36644,4.56525 5.21074,5.50723 1.30677,0.66743 2.05182,0.79109 5.68554,0.94361 6.4792,0.27197 17.37128,0.27805 21.99269,0.0123 z m -21.11819,-10.77469 c -1.67008,-0.27491 -1.62999,0.0892 -1.90026,-17.26125 -0.3131,-20.10146 -0.10472,-49.879574 0.35718,-51.045616 0.55698,-1.406058 1.70921,-1.540346 12.28444,-1.431721 8.83591,0.09076 9.67191,0.145722 10.47291,0.688538 l 0.87045,0.589909 -0.0961,33.55223 -0.0961,33.55223 -0.70513,0.70542 c -0.70225,0.70258 -0.74472,0.70559 -10.53171,0.74609 -5.40463,0.0224 -10.19971,-0.0207 -10.65574,-0.0958 z m 78.04238,10.0448 c 2.53817,-1.22589 4.236,-2.8681 5.5691,-5.38665 l 1.00671,-1.90189 V 145.53162 125.5271 l -0.7532,-1.7031 c -1.32003,-2.98484 -4.62677,-5.94336 -7.30046,-6.53169 -0.59628,-0.13121 -6.50559,-0.32234 -13.1318,-0.42474 l -12.04762,-0.18618 -0.56884,-0.77439 c -0.85827,-1.16849 -0.99032,-3.46009 -0.73926,-12.83242 0.20251,-7.561752 0.29411,-8.639948 0.7856,-9.247225 l 0.55638,-0.687429 16.30141,-0.154878 c 13.22219,-0.125622 16.35017,-0.233845 16.5595,-0.572919 0.39711,-0.643184 0.64352,-5.232456 0.40067,-7.461962 -0.21311,-1.956473 -0.23789,-1.999969 -1.29598,-2.273254 -0.60248,-0.155606 -8.8765,-0.230068 -18.74025,-0.168653 l -17.66152,0.109964 -1.35943,0.720161 c -1.85094,0.980548 -4.13744,3.333737 -5.1955,5.347034 l -0.8759,1.666702 -0.003,14.248779 c -0.003,14.1593 0.003,14.25987 0.71198,16.0149 1.27796,3.16292 4.57008,6.0493 7.52391,6.59667 0.61223,0.11345 6.42062,0.29939 12.90757,0.41321 l 11.7944,0.20693 0.82305,0.77341 0.82308,0.77341 -0.11479,15.95342 c -0.0631,8.77438 -0.22616,16.19204 -0.36229,16.4837 -0.13611,0.29165 -0.50082,0.61068 -0.81045,0.70896 -0.30963,0.0983 -7.76862,0.29927 -16.57551,0.44666 -11.27435,0.18868 -16.11764,0.37278 -16.36758,0.62213 -0.44537,0.44428 -0.66576,7.22503 -0.28296,8.70516 l 0.27602,1.06729 5.09184,0.16656 c 2.80047,0.0916 10.91428,0.19615 18.03062,0.23232 l 12.93885,0.0658 2.08432,-1.00671 z M -97.318286,148.76725 c 4.12138,-2.10257 6.821406,-8.57736 5.96607,-14.30692 -0.441092,-2.95471 -2.580875,-7.40275 -4.521974,-9.4 -1.471571,-1.51413 -4.72722,-3.27203 -6.03926,-3.26092 -1.32227,0.0112 -3.33816,1.13332 -4.973,2.76816 -4.30815,4.30815 -5.06831,11.65364 -1.85735,17.94765 1.53597,3.01075 6.69823,6.84544 9.215333,6.84544 0.575855,0 1.570439,-0.26703 2.210181,-0.59341 z m -6.323254,-11.91593 c -3.43301,-1.59856 -4.42093,-5.0257 -2.43492,-8.44689 0.9251,-1.59363 2.81051,-2.58524 4.91547,-2.58524 h 1.486145 l -0.207577,1.00671 c -0.541308,2.6252 -0.540588,3.22729 0.0045,3.77239 0.395156,0.39515 0.843968,0.49712 1.653996,0.37579 2.652116,-0.39727 2.654359,-0.39695 2.76781,0.40711 0.280156,1.98549 -1.300155,4.36213 -3.73464,5.61656 -1.508324,0.7772 -2.540144,0.74325 -4.450794,-0.14643 z m 32.730961,11.111 c 3.253969,-1.10874 7.041512,-5.38943 8.218217,-9.28825 0.401818,-1.33136 0.557678,-2.84238 0.549473,-5.32699 -0.01106,-3.35155 -0.04922,-3.54469 -1.132121,-5.73049 -2.51829,-5.08308 -7.190921,-8.0512 -10.329878,-6.56167 -1.604657,0.76147 -4.443271,3.65823 -5.647777,5.76349 -1.195999,2.09039 -2.218532,5.91075 -2.212306,8.26558 0.01403,5.31045 2.902898,10.56798 6.901726,12.56067 1.853918,0.92385 1.869589,0.92521 3.652666,0.31766 z m -2.268645,-11.91985 c -2.507132,-0.75491 -4.400271,-3.03247 -4.203982,-5.05766 l 0.09537,-0.98391 1.645898,0.10764 c 1.243401,0.0813 1.792583,-0.0251 2.245732,-0.4352 0.735801,-0.6659 0.774387,-2.06916 0.08881,-3.22975 -0.807289,-1.36663 -0.400778,-1.86342 1.524802,-1.86342 4.097451,0 6.969668,4.34693 5.382363,8.14588 -0.553166,1.32391 -2.376269,2.89216 -3.832188,3.29647 -1.340175,0.37217 -1.767437,0.37506 -2.9468,0.02 z"
         id="path3758"
         inkscape:connector-curvature="0" />
      <path
         style="fill:#f2a939;stroke-width:0.3097561"
         d="m -153.77058,199.53118 c -1.59708,-0.79694 -2.26361,-1.41228 -3.32633,-3.0708 l -0.8824,-1.37711 v -66.85901 c 0,-65.678743 0.0107,-66.879917 0.60409,-68.043127 0.33225,-0.651262 1.29758,-1.807623 2.14519,-2.569691 l 1.54109,-1.385578 15.12372,-0.205427 c 8.31804,-0.112985 20.90841,-0.207486 27.9786,-0.210003 7.07018,-0.0025 13.1621,-0.08695 13.537602,-0.187633 0.812661,-0.217894 0.853589,0.135214 -0.903589,-7.795394 -0.690202,-3.115056 -1.183687,-5.734965 -1.096633,-5.82202 0.461103,-0.4611 12.594817,7.721051 18.818716,12.690059 l 1.393902,1.112857 223.468682,0.003 223.46869,0.003 1.32997,0.643834 c 0.73149,0.35411 1.95085,1.334393 2.70972,2.178409 1.1434,1.271743 1.4128,1.81137 1.573,3.150678 0.10631,0.888857 0.15064,31.329097 0.0985,67.644986 l -0.0948,66.02887 -0.92927,1.31567 c -0.5111,0.72361 -1.60658,1.78101 -2.43444,2.34978 l -1.50516,1.03412 -260.70339,-0.0123 c -257.9551,-0.0122 -260.71616,-0.0187 -261.91539,-0.61713 z M 32.378242,174.14114 c 7.171201,0 6.802217,0.30881 6.802217,-5.69277 0,-3.85657 -0.07724,-4.58486 -0.534738,-5.0421 -0.480308,-0.48003 -1.820307,-0.55948 -13.164635,-0.7805 -6.946442,-0.13535 -13.072285,-0.32218 -13.612979,-0.4152 -0.952519,-0.16386 -0.989386,-0.22901 -1.185942,-2.09549 -0.111571,-1.05951 -0.157053,-16.24181 -0.101064,-33.73846 0.08178,-25.55632 0.180854,-31.891247 0.503831,-32.214636 0.307191,-0.307584 3.538325,-0.475618 13.696845,-0.712302 12.101022,-0.281943 13.344371,-0.359398 13.846746,-0.862584 0.478771,-0.479549 0.551936,-1.150041 0.551936,-5.058122 0,-4.012965 -0.06213,-4.550766 -0.568523,-4.921393 -0.961734,-0.703886 -4.666442,-0.852185 -18.109189,-0.724909 L 7.5647732,82.00517 5.7625347,82.886921 c -2.1944331,1.073637 -4.79165455,3.60238 -5.79642286,5.643595 l -0.74419217,1.511849 v 37.945125 37.94512 l 0.85559906,1.74223 c 1.00781937,2.05221 3.20111267,4.20696 5.53070787,5.43354 1.6630868,0.87564 1.6867614,0.87837 9.2563774,1.06711 4.173963,0.10407 8.620633,0.13892 9.881492,0.0774 1.260856,-0.0615 4.695324,-0.11179 7.632146,-0.11179 z m 47.380268,-0.10686 c 2.328016,-0.0747 3.466376,-0.26327 4.582105,-0.75907 1.879835,-0.83535 4.858884,-3.79627 5.913566,-5.87759 l 0.810428,-1.59929 V 128.0586 90.318881 l -0.837206,-1.68704 C 89.124287,86.408972 86.663792,83.981587 84.308605,82.792694 L 82.409103,81.833828 H 68.200964 53.992823 l -1.92685,0.962858 c -2.399223,1.198905 -4.531054,3.300241 -5.840424,5.75687 l -1.004846,1.885281 v 37.534073 37.53406 l 0.83536,1.70602 c 1.158804,2.36659 3.683715,4.90363 5.883464,5.91172 1.536774,0.70427 2.364712,0.85047 5.671421,1.00146 3.695647,0.16875 15.557727,0.11954 22.147562,-0.0919 z M 58.951535,162.47085 c -0.710785,-0.0735 -1.477431,-0.35673 -1.703659,-0.62931 -0.33632,-0.40524 -0.411318,-6.59137 -0.411318,-33.92663 0,-32.735553 0.01251,-33.440168 0.601276,-33.870686 0.887597,-0.649028 20.52165,-0.649217 21.409643,-2.07e-4 0.920047,0.672437 1.003827,3.518299 1.003827,34.098343 0,28.5072 -0.113327,33.28973 -0.80522,33.98076 -0.310178,0.30979 -2.515898,0.41127 -9.60244,0.4418 -5.059872,0.0218 -9.781321,-0.0205 -10.492109,-0.0941 z m 77.377505,11.36994 c 0.76054,-0.35907 0.82857,-0.56518 1.02798,-3.1142 0.2683,-3.42972 -0.0556,-6.97226 -0.68519,-7.4948 -0.35093,-0.29125 -3.73569,-0.42882 -13.58356,-0.55207 -12.00391,-0.15024 -13.16264,-0.21065 -13.66442,-0.71237 -0.51665,-0.51659 -0.55304,-2.46375 -0.63112,-33.76938 -0.071,-28.471193 -0.0193,-33.308211 0.36185,-33.829855 0.42525,-0.582063 0.99094,-0.616839 12.93773,-0.795315 7.95884,-0.118896 12.95995,-0.317041 13.77953,-0.545942 l 1.2865,-0.359307 0.21711,-1.870651 c 0.32107,-2.766314 -0.10874,-7.917673 -0.7017,-8.410157 -0.37218,-0.309112 -3.8356,-0.419593 -15.50286,-0.49452 l -15.02361,-0.09649 -1.96427,0.967009 c -2.36018,1.161911 -4.636542,3.301805 -5.951097,5.594319 l -0.966368,1.6853 -0.0028,37.721639 -0.0028,37.72164 0.953507,1.88889 c 1.268932,2.51373 3.378598,4.71071 5.512228,5.74036 1.49034,0.71921 2.30371,0.87226 5.61476,1.05654 6.42064,0.35733 26.04075,0.11697 26.98882,-0.33064 z m 44.8746,-0.20785 c 3.05085,-0.82114 5.06699,-2.5073 7.07985,-5.9211 l 0.87834,-1.48973 0.16306,-30.8106 c 0.16519,-31.21423 -0.0307,-44.374773 -0.69358,-46.590464 -0.48409,-1.61807 -3.59416,-4.682273 -6.07713,-5.987468 l -1.90191,-0.99975 -11.72736,0.01044 c -13.20494,0.01174 -17.45628,0.274983 -19.22305,1.190266 -0.64762,0.335506 -2.06541,1.512591 -3.15065,2.615747 -3.20782,3.260787 -2.94768,-0.35515 -3.06326,42.579469 l -0.1003,37.2581 1.01315,1.90086 c 1.35378,2.53994 3.55202,4.7373 5.74362,5.7413 2.37735,1.0891 4.9312,1.2387 18.5141,1.08453 8.2834,-0.094 11.24343,-0.23124 12.54512,-0.58159 z m -22.68515,-11.1639 c -2.15559,-0.0977 -2.76287,-0.23042 -2.98595,-0.65269 -0.74478,-1.40968 -0.75751,-66.429153 -0.0133,-67.633404 0.21305,-0.344737 2.22061,-0.423508 10.79367,-0.423508 9.6975,0 10.57578,0.04382 11.08509,0.553116 0.52395,0.523949 0.55313,2.263555 0.55313,32.989026 0,17.83975 -0.10833,32.94516 -0.24075,33.56758 -0.13242,0.62243 -0.48089,1.233 -0.77439,1.35683 -0.59851,0.25252 -14.2367,0.43249 -18.41757,0.24305 z m 69.30344,11.70643 c 4.51012,-0.20412 5.12953,-0.30283 6.88353,-1.09704 2.25961,-1.02316 4.57764,-3.30717 5.79541,-5.71037 l 0.8163,-1.61088 -0.0878,-20.66595 c -0.0873,-20.52892 -0.0923,-20.67426 -0.75987,-21.92114 -1.10629,-2.06641 -3.34496,-4.30082 -5.42631,-5.41594 l -1.95536,-1.04763 -12.39025,-0.21668 c -6.81463,-0.11916 -12.62048,-0.30871 -12.90187,-0.42121 -0.78328,-0.31315 -0.87428,-1.45262 -0.91591,-11.46773 -0.0288,-6.957412 0.0608,-9.506748 0.35696,-10.144511 l 0.39562,-0.851829 7.30699,-6.2e-4 c 4.01884,-3.1e-4 11.39584,-0.09273 16.39329,-0.205365 l 9.08632,-0.204795 0.51612,-0.787388 c 0.41293,-0.629941 0.51614,-1.570345 0.51614,-4.702931 0,-4.490246 -0.30473,-5.443916 -1.83093,-5.729778 -0.52628,-0.09857 -8.62334,-0.128862 -17.99346,-0.06731 -19.82392,0.130228 -19.04588,0.02472 -22.24371,3.016154 -1.07268,1.00343 -2.36105,2.565877 -2.86307,3.472106 l -0.91273,1.647732 -0.0916,14.643475 -0.0916,14.64347 1.01937,1.92848 c 1.31699,2.49156 3.52949,4.70601 5.6901,5.69517 1.70927,0.78254 1.76586,0.78676 14.01203,1.04483 6.76272,0.14252 12.54101,0.35327 12.8406,0.46833 0.29963,0.11507 0.64811,0.57716 0.77439,1.02687 0.12632,0.44972 0.22966,7.72363 0.22966,16.16424 0,14.17015 -0.0421,15.41083 -0.54923,16.18476 l -0.5492,0.83818 h -16.04617 -16.0462 l -0.71142,0.75727 c -0.59873,0.63734 -0.73539,1.18925 -0.86273,3.48476 -0.15296,2.75732 0.2772,6.15387 0.85217,6.72884 0.17213,0.17214 1.46096,0.40094 2.86409,0.50846 3.58233,0.2745 22.93159,0.2852 28.88039,0.016 z M -97.576867,149.37614 c 5.546388,-2.80552 8.182143,-10.99938 5.851147,-18.18967 -1.322215,-4.07857 -5.327368,-8.34617 -8.96765,-9.55527 -2.55736,-0.84942 -6.14489,-0.55495 -8.72602,0.71625 -4.24585,2.09107 -6.73078,6.63091 -6.73917,12.31215 -0.0101,6.81556 3.72208,12.67596 9.59877,15.0725 2.03866,0.83137 7.026342,0.63373 8.982923,-0.35596 z m -6.757043,-13.32889 c -0.70092,-0.50774 -1.48848,-1.33716 -1.75014,-1.84315 -1.05834,-2.04662 -0.24985,-5.84826 1.48557,-6.98535 0.89639,-0.58734 3.43965,-1.07942 3.94967,-0.76421 0.3038,0.18776 0.30271,0.43053 -0.005,1.17412 -0.46849,1.13104 -0.20413,2.57451 0.60572,3.30742 0.464663,0.42051 0.990396,0.50588 2.460493,0.39955 1.727621,-0.12497 1.869046,-0.0867 1.862761,0.50404 -0.0097,0.90991 -1.029793,3.01513 -1.787481,3.68885 -0.884834,0.78678 -2.757083,1.41203 -4.276923,1.4283 -0.93195,0.01 -1.6092,-0.23213 -2.54438,-0.90957 z m 39.43465,11.93389 c 8.545787,-4.18107 11.09254,-16.7089 4.926436,-24.23382 -3.163112,-3.86016 -8.242973,-5.03528 -13.443066,-3.10976 -3.519449,1.30319 -7.156398,6.25932 -8.072151,11.00006 -1.403304,7.26469 2.109426,14.79509 7.865373,16.86136 2.311868,0.82991 6.473646,0.58286 8.723408,-0.51784 z m -9.413718,-12.78205 c -1.26224,-0.62177 -2.880707,-3.02971 -2.754624,-4.09831 0.08447,-0.71593 0.187657,-0.75402 1.831879,-0.67629 1.572487,0.0743 1.806538,9.3e-4 2.40061,-0.75446 0.781812,-0.99391 0.845201,-2.20705 0.165986,-3.17677 -1.772731,-2.53092 3.332462,-1.87872 5.27992,0.67452 1.946548,2.55206 0.943375,6.57697 -2.021369,8.1101 -1.166003,0.60296 -3.597731,0.56388 -4.902402,-0.0788 z"
         id="path3756"
         inkscape:connector-curvature="0" />
      <path
         style="fill:#966e36;stroke-width:0.3097561"
         d="m -153.77058,199.53118 c -1.59708,-0.79694 -2.26361,-1.41228 -3.32633,-3.0708 l -0.8824,-1.37711 v -66.85901 c 0,-65.678743 0.0107,-66.879917 0.60409,-68.043127 0.33225,-0.651262 1.29758,-1.807623 2.14519,-2.569691 l 1.54109,-1.385578 15.12372,-0.205427 c 8.31804,-0.112985 20.90841,-0.207486 27.9786,-0.210003 7.07018,-0.0025 13.1621,-0.08695 13.537602,-0.187633 0.812661,-0.217894 0.853589,0.135214 -0.903589,-7.795394 -0.690202,-3.115056 -1.183687,-5.734965 -1.096633,-5.82202 0.461103,-0.4611 12.594817,7.721051 18.818716,12.690059 l 1.393902,1.112857 223.468682,0.003 223.46869,0.003 1.32997,0.643834 c 0.73149,0.35411 1.95085,1.334393 2.70972,2.178409 1.1434,1.271743 1.4128,1.81137 1.573,3.150678 0.10631,0.888857 0.15064,31.329097 0.0985,67.644986 l -0.0948,66.02887 -0.92927,1.31567 c -0.5111,0.72361 -1.60658,1.78101 -2.43444,2.34978 l -1.50516,1.03412 -260.70339,-0.0123 c -257.9551,-0.0122 -260.71616,-0.0187 -261.91539,-0.61713 z m 121.526869,-14.53562 c 0.653929,-0.33361 1.763498,-1.25927 2.465708,-2.05703 l 1.27675,-1.45046 V 128.19284 74.897615 l -0.814869,-1.175856 c -0.854211,-1.23263 -3.156161,-2.935599 -4.385035,-3.244027 -0.396549,-0.09953 -7.340018,-0.07754 -15.429925,0.04886 -13.973259,0.218327 -14.688895,0.257139 -14.308452,0.776002 0.220261,0.3004 1.553882,2.130715 2.963604,4.067366 3.677957,5.052717 4.111829,5.581157 4.481266,5.458011 0.18218,-0.06073 0.762573,-1.356859 1.289763,-2.880295 0.608658,-1.758867 1.138282,-2.803634 1.451009,-2.862348 0.940066,-0.176493 7.675115,19.085712 9.074621,25.953382 1.693861,8.31213 2.272783,17.15929 1.63673,25.0128 l -0.257144,3.175 0.721778,-0.005 c 0.396977,-0.003 1.767202,-0.27932 3.044946,-0.61421 4.028264,-1.0558 4.107518,-0.92904 2.055409,3.28724 -3.230639,6.63771 -7.939908,14.43306 -11.760582,19.46755 -2.30921,3.04284 -8.227798,8.94235 -11.682635,11.64499 -1.403734,1.09811 -2.845887,2.2306 -3.20478,2.51665 -0.438045,0.34913 -0.550626,0.62413 -0.342501,0.83662 0.170518,0.17409 2.191677,0.60714 4.491464,0.96233 11.787593,1.82054 16.564339,4.33035 12.622283,6.63204 -2.927279,1.70918 -10.164699,3.20843 -19.825838,4.10698 -6.760917,0.62882 -29.479146,0.71232 -37.711359,0.13862 -9.26708,-0.64583 -18.14739,-2.27606 -21.42771,-3.93368 -2.43803,-1.232 -2.38145,-2.74886 0.14813,-3.97068 2.19266,-1.0591 5.36056,-1.86788 11.04952,-2.82103 4.51634,-0.75668 5.2502,-0.93204 4.93839,-1.18005 -0.071,-0.0565 -1.52297,-1.11958 -3.22662,-2.36249 -3.86101,-2.8168 -8.64165,-7.63726 -11.38788,-11.48272 -3.91894,-5.48759 -7.48335,-13.60427 -9.52415,-21.68788 -1.99174,-7.88929 -2.22291,-10.16994 -2.39185,-23.59668 -0.0851,-6.76741 -0.0597,-12.811652 0.0567,-13.431648 l 0.21147,-1.127261 0.74597,0.700795 c 0.41028,0.385436 1.76009,2.139582 2.99957,3.898095 1.23949,1.758516 2.38322,3.157949 2.54163,3.109849 0.15841,-0.0481 1.1434,-2.169956 2.18886,-4.715234 3.5007,-8.522775 7.26718,-15.204022 12.22775,-21.690476 1.36776,-1.788495 2.48684,-3.335419 2.48684,-3.43761 0,-0.102192 -5.88924,-0.08904 -13.08719,0.02922 l -13.0872,0.215022 -1.23037,0.844003 c -0.67671,0.464201 -1.65244,1.44451 -2.1683,2.178464 l -0.93791,1.334464 -0.0801,53.060107 -0.0801,53.0601 1.43745,1.5988 c 0.7906,0.87934 1.94175,1.86529 2.55811,2.19102 1.09037,0.57622 2.53748,0.59259 53.559217,0.60591 51.468194,0.0134 52.460563,0.002 53.627522,-0.59287 z m 64.621953,-10.85442 c 7.171201,0 6.802217,0.30881 6.802217,-5.69277 0,-3.85657 -0.07724,-4.58486 -0.534738,-5.0421 -0.480308,-0.48003 -1.820307,-0.55948 -13.164635,-0.7805 -6.946442,-0.13535 -13.072285,-0.32218 -13.612979,-0.4152 -0.952519,-0.16386 -0.989386,-0.22901 -1.185942,-2.09549 -0.111571,-1.05951 -0.157053,-16.24181 -0.101064,-33.73846 0.08178,-25.55632 0.180854,-31.891247 0.503831,-32.214636 0.307191,-0.307584 3.538325,-0.475618 13.696845,-0.712302 12.101022,-0.281943 13.344371,-0.359398 13.846746,-0.862584 0.478771,-0.479549 0.551936,-1.150041 0.551936,-5.058122 0,-4.012965 -0.06213,-4.550766 -0.568523,-4.921393 -0.961734,-0.703886 -4.666442,-0.852185 -18.109189,-0.724909 L 7.5647732,82.00517 5.7625347,82.886921 c -2.1944331,1.073637 -4.79165455,3.60238 -5.79642286,5.643595 l -0.74419217,1.511849 v 37.945125 37.94512 l 0.85559906,1.74223 c 1.00781937,2.05221 3.20111267,4.20696 5.53070787,5.43354 1.6630868,0.87564 1.6867614,0.87837 9.2563774,1.06711 4.173963,0.10407 8.620633,0.13892 9.881492,0.0774 1.260856,-0.0615 4.695324,-0.11179 7.632146,-0.11179 z m 47.380268,-0.10686 c 2.328016,-0.0747 3.466376,-0.26327 4.582105,-0.75907 1.879835,-0.83535 4.858884,-3.79627 5.913566,-5.87759 l 0.810428,-1.59929 V 128.0586 90.318881 l -0.837206,-1.68704 C 89.124287,86.408972 86.663792,83.981587 84.308605,82.792694 L 82.409103,81.833828 H 68.200964 53.992823 l -1.92685,0.962858 c -2.399223,1.198905 -4.531054,3.300241 -5.840424,5.75687 l -1.004846,1.885281 v 37.534073 37.53406 l 0.83536,1.70602 c 1.158804,2.36659 3.683715,4.90363 5.883464,5.91172 1.536774,0.70427 2.364712,0.85047 5.671421,1.00146 3.695647,0.16875 15.557727,0.11954 22.147562,-0.0919 z M 58.951535,162.47085 c -0.710785,-0.0735 -1.477431,-0.35673 -1.703659,-0.62931 -0.33632,-0.40524 -0.411318,-6.59137 -0.411318,-33.92663 0,-32.735553 0.01251,-33.440168 0.601276,-33.870686 0.887597,-0.649028 20.52165,-0.649217 21.409643,-2.07e-4 0.920047,0.672437 1.003827,3.518299 1.003827,34.098343 0,28.5072 -0.113327,33.28973 -0.80522,33.98076 -0.310178,0.30979 -2.515898,0.41127 -9.60244,0.4418 -5.059872,0.0218 -9.781321,-0.0205 -10.492109,-0.0941 z m 77.377505,11.36994 c 0.76054,-0.35907 0.82857,-0.56518 1.02798,-3.1142 0.2683,-3.42972 -0.0556,-6.97226 -0.68519,-7.4948 -0.35093,-0.29125 -3.73569,-0.42882 -13.58356,-0.55207 -12.00391,-0.15024 -13.16264,-0.21065 -13.66442,-0.71237 -0.51665,-0.51659 -0.55304,-2.46375 -0.63112,-33.76938 -0.071,-28.471193 -0.0193,-33.308211 0.36185,-33.829855 0.42525,-0.582063 0.99094,-0.616839 12.93773,-0.795315 7.95884,-0.118896 12.95995,-0.317041 13.77953,-0.545942 l 1.2865,-0.359307 0.21711,-1.870651 c 0.32107,-2.766314 -0.10874,-7.917673 -0.7017,-8.410157 -0.37218,-0.309112 -3.8356,-0.419593 -15.50286,-0.49452 l -15.02361,-0.09649 -1.96427,0.967009 c -2.36018,1.161911 -4.636542,3.301805 -5.951097,5.594319 l -0.966368,1.6853 -0.0028,37.721639 -0.0028,37.72164 0.953507,1.88889 c 1.268932,2.51373 3.378598,4.71071 5.512228,5.74036 1.49034,0.71921 2.30371,0.87226 5.61476,1.05654 6.42064,0.35733 26.04075,0.11697 26.98882,-0.33064 z m 44.8746,-0.20785 c 3.05085,-0.82114 5.06699,-2.5073 7.07985,-5.9211 l 0.87834,-1.48973 0.16306,-30.8106 c 0.16519,-31.21423 -0.0307,-44.374773 -0.69358,-46.590464 -0.48409,-1.61807 -3.59416,-4.682273 -6.07713,-5.987468 l -1.90191,-0.99975 -11.72736,0.01044 c -13.20494,0.01174 -17.45628,0.274983 -19.22305,1.190266 -0.64762,0.335506 -2.06541,1.512591 -3.15065,2.615747 -3.20782,3.260787 -2.94768,-0.35515 -3.06326,42.579469 l -0.1003,37.2581 1.01315,1.90086 c 1.35378,2.53994 3.55202,4.7373 5.74362,5.7413 2.37735,1.0891 4.9312,1.2387 18.5141,1.08453 8.2834,-0.094 11.24343,-0.23124 12.54512,-0.58159 z m -22.68515,-11.1639 c -2.15559,-0.0977 -2.76287,-0.23042 -2.98595,-0.65269 -0.74478,-1.40968 -0.75751,-66.429153 -0.0133,-67.633404 0.21305,-0.344737 2.22061,-0.423508 10.79367,-0.423508 9.6975,0 10.57578,0.04382 11.08509,0.553116 0.52395,0.523949 0.55313,2.263555 0.55313,32.989026 0,17.83975 -0.10833,32.94516 -0.24075,33.56758 -0.13242,0.62243 -0.48089,1.233 -0.77439,1.35683 -0.59851,0.25252 -14.2367,0.43249 -18.41757,0.24305 z m 69.30344,11.70643 c 4.51012,-0.20412 5.12953,-0.30283 6.88353,-1.09704 2.25961,-1.02316 4.57764,-3.30717 5.79541,-5.71037 l 0.8163,-1.61088 -0.0878,-20.66595 c -0.0873,-20.52892 -0.0923,-20.67426 -0.75987,-21.92114 -1.10629,-2.06641 -3.34496,-4.30082 -5.42631,-5.41594 l -1.95536,-1.04763 -12.39025,-0.21668 c -6.81463,-0.11916 -12.62048,-0.30871 -12.90187,-0.42121 -0.78328,-0.31315 -0.87428,-1.45262 -0.91591,-11.46773 -0.0288,-6.957412 0.0608,-9.506748 0.35696,-10.144511 l 0.39562,-0.851829 7.30699,-6.2e-4 c 4.01884,-3.1e-4 11.39584,-0.09273 16.39329,-0.205365 l 9.08632,-0.204795 0.51612,-0.787388 c 0.41293,-0.629941 0.51614,-1.570345 0.51614,-4.702931 0,-4.490246 -0.30473,-5.443916 -1.83093,-5.729778 -0.52628,-0.09857 -8.62334,-0.128862 -17.99346,-0.06731 -19.82392,0.130228 -19.04588,0.02472 -22.24371,3.016154 -1.07268,1.00343 -2.36105,2.565877 -2.86307,3.472106 l -0.91273,1.647732 -0.0916,14.643475 -0.0916,14.64347 1.01937,1.92848 c 1.31699,2.49156 3.52949,4.70601 5.6901,5.69517 1.70927,0.78254 1.76586,0.78676 14.01203,1.04483 6.76272,0.14252 12.54101,0.35327 12.8406,0.46833 0.29963,0.11507 0.64811,0.57716 0.77439,1.02687 0.12632,0.44972 0.22966,7.72363 0.22966,16.16424 0,14.17015 -0.0421,15.41083 -0.54923,16.18476 l -0.5492,0.83818 h -16.04617 -16.0462 l -0.71142,0.75727 c -0.59873,0.63734 -0.73539,1.18925 -0.86273,3.48476 -0.15296,2.75732 0.2772,6.15387 0.85217,6.72884 0.17213,0.17214 1.46096,0.40094 2.86409,0.50846 3.58233,0.2745 22.93159,0.2852 28.88039,0.016 z m 67.47715,-0.94489 c 0.23805,-0.23805 0.35929,-1.81311 0.35935,-4.66881 9e-5,-3.72317 -0.0752,-4.3849 -0.55279,-4.86326 -0.51271,-0.51351 -1.7267,-0.56495 -16.72283,-0.70859 l -16.16999,-0.15487 -0.46088,-0.92927 c -0.38946,-0.78521 -0.46104,-3.33024 -0.46185,-16.41707 0,-8.5183 0.0993,-15.85576 0.22191,-16.30547 0.12257,-0.44972 0.46801,-0.91867 0.76764,-1.04212 0.29959,-0.12345 6.12035,-0.3193 12.93498,-0.43523 l 12.39025,-0.21077 1.65415,-0.85734 c 3.38164,-1.75268 5.83058,-4.90905 6.09402,-7.85441 0.27894,-3.11874 0.41105,-22.698398 0.17412,-25.805112 -0.18251,-2.392655 -0.43208,-3.618875 -0.93866,-4.611869 -0.92976,-1.822503 -3.29844,-4.134544 -5.24789,-5.12239 l -1.59762,-0.809585 -18.25192,0.0869 c -13.64265,0.06496 -18.3454,0.180393 -18.62198,0.457111 -0.47795,0.47822 -0.51816,8.963179 -0.0447,9.436654 0.2146,0.214608 5.63273,0.375759 15.91995,0.473499 8.5971,0.08169 16.03202,0.281603 16.56935,0.445535 1.71531,0.523314 1.81734,1.190513 1.77698,11.623137 -0.0198,5.13661 -0.12604,9.69761 -0.23597,10.13557 -0.10994,0.43796 -0.49279,0.95307 -0.85084,1.14469 -0.42319,0.22649 -4.8926,0.44282 -12.77379,0.61828 -6.66753,0.14844 -12.58077,0.40555 -13.1405,0.57135 -1.56573,0.46378 -2.91109,1.40502 -4.67658,3.27177 -2.84969,3.01312 -2.65684,1.30929 -2.76104,24.39122 l -0.0919,20.35508 0.82516,1.74423 c 0.92524,1.95578 3.55135,4.72031 5.31801,5.59831 1.59206,0.79123 7.18669,0.99373 24.50202,0.88685 9.90411,-0.0611 13.83476,-0.18497 14.09381,-0.44402 z m 41.24725,0.32764 c 2.63788,-0.15803 4.06691,-0.39175 4.92206,-0.80503 1.7083,-0.8256 4.3088,-3.47084 5.26266,-5.3532 l 0.81162,-1.60166 -0.003,-37.87799 -0.003,-37.877975 -0.90839,-1.583811 c -1.12984,-1.969841 -3.39942,-4.268715 -5.08567,-5.151294 -1.25857,-0.658727 -1.56557,-0.67169 -18.8578,-0.796293 -9.66814,-0.06966 -18.05221,-0.03778 -18.63127,0.07085 -0.79607,0.149343 -1.10211,0.39383 -1.25485,1.002436 -0.26141,1.041477 -0.26246,88.718667 0,89.399797 0.16178,0.4216 0.74443,0.53429 3.18909,0.61676 6.01785,0.20303 26.9463,0.17387 30.55945,-0.0426 z m -21.60549,-10.78156 -1.47134,-0.13043 -0.0774,-15.23852 c -0.10222,-20.11487 0.0483,-52.843476 0.24713,-53.73712 l 0.1576,-0.708356 10.75526,0.08884 c 9.89891,0.08177 10.82309,0.134843 11.60709,0.666546 l 0.85183,0.577698 v 28.849132 c 0,30.70587 -0.15525,38.27799 -0.79704,39.15607 -0.35461,0.48513 -1.28759,0.53786 -10.09572,0.57055 -5.33775,0.0198 -10.36711,-0.0227 -11.17635,-0.0944 z M -97.576867,149.37614 c 5.546388,-2.80552 8.182143,-10.99938 5.851147,-18.18967 -1.322215,-4.07857 -5.327368,-8.34617 -8.96765,-9.55527 -2.55736,-0.84942 -6.14489,-0.55495 -8.72602,0.71625 -4.24585,2.09107 -6.73078,6.63091 -6.73917,12.31215 -0.0101,6.81556 3.72208,12.67596 9.59877,15.0725 2.03866,0.83137 7.026342,0.63373 8.982923,-0.35596 z m -6.757043,-13.32889 c -0.70092,-0.50774 -1.48848,-1.33716 -1.75014,-1.84315 -1.05834,-2.04662 -0.24985,-5.84826 1.48557,-6.98535 0.89639,-0.58734 3.43965,-1.07942 3.94967,-0.76421 0.3038,0.18776 0.30271,0.43053 -0.005,1.17412 -0.46849,1.13104 -0.20413,2.57451 0.60572,3.30742 0.464663,0.42051 0.990396,0.50588 2.460493,0.39955 1.727621,-0.12497 1.869046,-0.0867 1.862761,0.50404 -0.0097,0.90991 -1.029793,3.01513 -1.787481,3.68885 -0.884834,0.78678 -2.757083,1.41203 -4.276923,1.4283 -0.93195,0.01 -1.6092,-0.23213 -2.54438,-0.90957 z m 39.43465,11.93389 c 8.545787,-4.18107 11.09254,-16.7089 4.926436,-24.23382 -3.163112,-3.86016 -8.242973,-5.03528 -13.443066,-3.10976 -3.519449,1.30319 -7.156398,6.25932 -8.072151,11.00006 -1.403304,7.26469 2.109426,14.79509 7.865373,16.86136 2.311868,0.82991 6.473646,0.58286 8.723408,-0.51784 z m -9.413718,-12.78205 c -1.26224,-0.62177 -2.880707,-3.02971 -2.754624,-4.09831 0.08447,-0.71593 0.187657,-0.75402 1.831879,-0.67629 1.572487,0.0743 1.806538,9.3e-4 2.40061,-0.75446 0.781812,-0.99391 0.845201,-2.20705 0.165986,-3.17677 -1.772731,-2.53092 3.332462,-1.87872 5.27992,0.67452 1.946548,2.55206 0.943375,6.57697 -2.021369,8.1101 -1.166003,0.60296 -3.597731,0.56388 -4.902402,-0.0788 z"
         id="path3754"
         inkscape:connector-curvature="0" />
      <path
         style="fill:#665e54;stroke-width:0.3097561"
         d="m -153.77996,199.52662 c -1.49131,-0.74402 -2.47406,-1.64239 -3.36685,-3.07775 l -0.67762,-1.08943 -0.0868,-66.97868 c -0.0859,-66.235914 -0.08,-66.992014 0.52665,-68.18121 0.33742,-0.661391 1.30698,-1.82604 2.15459,-2.588108 l 1.54109,-1.385578 15.12372,-0.205427 c 8.31804,-0.112985 20.90841,-0.207486 27.9786,-0.210003 7.07018,-0.0025 13.1621,-0.08695 13.537602,-0.187633 0.812661,-0.217894 0.853589,0.135214 -0.903589,-7.795394 -0.690202,-3.115056 -1.183687,-5.734965 -1.096633,-5.82202 0.461103,-0.4611 12.594817,7.721051 18.818716,12.690059 l 1.393902,1.112857 218.870662,0.003 c 120.37885,0.0016 221.21172,0.09534 224.07297,0.20818 l 5.20232,0.205174 1.24556,0.956411 c 0.68506,0.526027 1.67677,1.492085 2.20385,2.146796 l 0.95833,1.190384 v 67.420592 67.42059 l -0.71492,1.1498 c -0.67911,1.09217 -2.17811,2.41644 -3.6949,3.26423 -0.55272,0.30893 -53.36763,0.3847 -261.27929,0.37485 -258.50531,-0.0122 -260.59629,-0.0172 -261.80792,-0.62169 z m 121.716512,-14.19045 c 1.194001,-0.73675 2.520033,-2.07147 3.460267,-3.48294 l 0.743384,-1.11597 -0.08841,-52.83245 -0.08841,-52.832462 -0.929268,-1.313555 c -1.592571,-2.251158 -2.904292,-3.091722 -5.308071,-3.401467 -2.405148,-0.30992 -25.649804,-0.333102 -28.370123,-0.02829 l -1.77331,0.198698 2.940657,4.026829 c 4.748695,6.502688 5.445327,7.365526 5.718442,7.082793 0.142469,-0.147487 0.620383,-1.383281 1.06203,-2.746208 0.995008,-3.070618 1.197449,-3.426237 1.639424,-2.879904 0.54944,0.679165 3.766861,9.08987 5.663683,14.805514 3.833319,11.550822 5.33545,22.428932 4.610658,33.389382 -0.194818,2.94605 -0.268887,5.44178 -0.164601,5.54607 0.153915,0.15391 2.796156,-0.42434 6.161396,-1.34841 1.239,-0.34023 0.824091,0.98158 -1.934136,6.16169 -8.485353,15.93601 -13.606517,22.1286 -25.335439,30.636 -2.614692,1.89653 -4.640506,3.54731 -4.501809,3.6684 0.138693,0.12109 1.369946,0.4329 2.736113,0.69291 4.547984,0.86556 7.265335,2.51914 5.845661,3.55723 -1.399651,1.02345 -6.443562,2.14127 -13.2857,2.94436 -5.004404,0.58738 -23.229246,0.47221 -28.59778,-0.18072 -6.03226,-0.73366 -10.95024,-2.12587 -11.67984,-3.3064 -0.39665,-0.64178 0.90389,-1.5447 3.3279,-2.31044 1.34414,-0.42462 2.63671,-0.77203 2.87237,-0.77203 0.23567,0 0.80722,-0.144 1.27013,-0.31999 l 0.84166,-0.32 -1.20869,-0.8625 c -0.66477,-0.47437 -2.80083,-1.96821 -4.7468,-3.31964 -12.88142,-8.94583 -20.32958,-21.53199 -23.54237,-39.78274 -1.39804,-7.94176 -2.08551,-31.595123 -0.91829,-31.595123 0.14844,0 1.00298,1.06667 1.89897,2.37038 2.1735,3.162545 3.90964,5.373523 4.21949,5.373523 0.32344,0 0.67322,-0.7797 2.4134,-5.379839 2.76247,-7.302574 6.78483,-14.443979 12.31818,-21.870068 l 2.41704,-3.243807 -1.04147,-0.270222 c -0.5728,-0.148623 -6.40799,-0.222202 -12.96708,-0.163509 l -11.92561,0.106713 -1.53296,0.77439 c -2.40339,1.214101 -3.21561,2.47816 -3.59218,5.590552 -0.20738,1.713964 -0.28636,20.230861 -0.22873,53.6237 l 0.088,51.00571 0.93907,1.34307 c 0.51649,0.73868 1.61252,1.79608 2.43562,2.34977 l 1.49654,1.00671 52.855854,-0.001 c 50.89648,-0.001 52.890299,-0.0224 53.78512,-0.57455 z m 64.44169,-11.19503 c 7.171201,0 6.802217,0.30881 6.802217,-5.69277 0,-3.85657 -0.07724,-4.58486 -0.534738,-5.0421 -0.480308,-0.48003 -1.820307,-0.55948 -13.164635,-0.7805 -6.946442,-0.13535 -13.072285,-0.32218 -13.612979,-0.4152 -0.952519,-0.16386 -0.989386,-0.22901 -1.185942,-2.09549 -0.111571,-1.05951 -0.157053,-16.24181 -0.101064,-33.73846 0.08178,-25.55632 0.180854,-31.891247 0.503831,-32.214636 0.307191,-0.307584 3.538325,-0.475618 13.696845,-0.712302 12.101022,-0.281943 13.344371,-0.359398 13.846746,-0.862584 0.478771,-0.479549 0.551936,-1.150041 0.551936,-5.058122 0,-4.012965 -0.06213,-4.550766 -0.568523,-4.921393 -0.961734,-0.703886 -4.666442,-0.852185 -18.109189,-0.724909 L 7.5647732,82.00517 5.7625347,82.886921 c -2.1944331,1.073637 -4.79165455,3.60238 -5.79642286,5.643595 l -0.74419217,1.511849 v 37.945125 37.94512 l 0.85559906,1.74223 c 1.00781937,2.05221 3.20111267,4.20696 5.53070787,5.43354 1.6630868,0.87564 1.6867614,0.87837 9.2563774,1.06711 4.173963,0.10407 8.620633,0.13892 9.881492,0.0774 1.260856,-0.0615 4.695324,-0.11179 7.632146,-0.11179 z m 47.380268,-0.10686 c 2.328016,-0.0747 3.466376,-0.26327 4.582105,-0.75907 1.879835,-0.83535 4.858884,-3.79627 5.913566,-5.87759 l 0.810428,-1.59929 V 128.0586 90.318881 l -0.837206,-1.68704 C 89.124287,86.408972 86.663792,83.981587 84.308605,82.792694 L 82.409103,81.833828 H 68.200964 53.992823 l -1.92685,0.962858 c -2.399223,1.198905 -4.531054,3.300241 -5.840424,5.75687 l -1.004846,1.885281 v 37.534073 37.53406 l 0.83536,1.70602 c 1.158804,2.36659 3.683715,4.90363 5.883464,5.91172 1.536774,0.70427 2.364712,0.85047 5.671421,1.00146 3.695647,0.16875 15.557727,0.11954 22.147562,-0.0919 z M 58.951535,162.47085 c -0.710785,-0.0735 -1.477431,-0.35673 -1.703659,-0.62931 -0.33632,-0.40524 -0.411318,-6.59137 -0.411318,-33.92663 0,-32.735553 0.01251,-33.440168 0.601276,-33.870686 0.887597,-0.649028 20.52165,-0.649217 21.409643,-2.07e-4 0.920047,0.672437 1.003827,3.518299 1.003827,34.098343 0,28.5072 -0.113327,33.28973 -0.80522,33.98076 -0.310178,0.30979 -2.515898,0.41127 -9.60244,0.4418 -5.059872,0.0218 -9.781321,-0.0205 -10.492109,-0.0941 z m 77.377505,11.36994 c 0.76054,-0.35907 0.82857,-0.56518 1.02798,-3.1142 0.2683,-3.42972 -0.0556,-6.97226 -0.68519,-7.4948 -0.35093,-0.29125 -3.73569,-0.42882 -13.58356,-0.55207 -12.00391,-0.15024 -13.16264,-0.21065 -13.66442,-0.71237 -0.51665,-0.51659 -0.55304,-2.46375 -0.63112,-33.76938 -0.071,-28.471193 -0.0193,-33.308211 0.36185,-33.829855 0.42525,-0.582063 0.99094,-0.616839 12.93773,-0.795315 7.95884,-0.118896 12.95995,-0.317041 13.77953,-0.545942 l 1.2865,-0.359307 0.21711,-1.870651 c 0.32107,-2.766314 -0.10874,-7.917673 -0.7017,-8.410157 -0.37218,-0.309112 -3.8356,-0.419593 -15.50286,-0.49452 l -15.02361,-0.09649 -1.96427,0.967009 c -2.36018,1.161911 -4.636542,3.301805 -5.951097,5.594319 l -0.966368,1.6853 -0.0028,37.721639 -0.0028,37.72164 0.953507,1.88889 c 1.268932,2.51373 3.378598,4.71071 5.512228,5.74036 1.49034,0.71921 2.30371,0.87226 5.61476,1.05654 6.42064,0.35733 26.04075,0.11697 26.98882,-0.33064 z m 44.8746,-0.21014 c 3.04781,-0.81623 5.06612,-2.50357 7.07985,-5.91881 l 0.87834,-1.48973 0.16306,-30.8106 c 0.16519,-31.21423 -0.0307,-44.374773 -0.69358,-46.590464 -0.48409,-1.61807 -3.59416,-4.682273 -6.07713,-5.987468 l -1.90191,-0.99975 -11.72736,0.01351 c -13.03965,0.01502 -17.42469,0.26052 -19.02658,1.065251 -0.58531,0.294045 -2.00962,1.460977 -3.16514,2.593182 -3.43537,3.366079 -3.13198,-0.610703 -3.24749,42.567169 l -0.1001,37.41106 1.01418,1.90278 c 2.32694,4.3658 5.51426,6.42386 10.47459,6.76347 5.36953,0.36764 24.42018,-0.008 26.32927,-0.51959 z m -22.68515,-11.16161 c -2.15559,-0.0977 -2.76287,-0.23042 -2.98595,-0.65269 -0.74478,-1.40968 -0.75751,-66.429153 -0.0133,-67.633404 0.21305,-0.344737 2.22061,-0.423508 10.79367,-0.423508 9.6975,0 10.57578,0.04382 11.08509,0.553116 0.52395,0.523949 0.55313,2.263555 0.55313,32.989026 0,17.83975 -0.10833,32.94516 -0.24075,33.56758 -0.13242,0.62243 -0.48089,1.233 -0.77439,1.35683 -0.59851,0.25252 -14.2367,0.43249 -18.41757,0.24305 z m 69.30344,11.70643 c 4.51012,-0.20412 5.12953,-0.30283 6.88353,-1.09704 2.25834,-1.02259 4.57751,-3.30692 5.79343,-5.70644 l 0.81432,-1.60697 -0.0859,-20.66986 c -0.0853,-20.53484 -0.0903,-20.67807 -0.75785,-21.92507 -1.10629,-2.06641 -3.34496,-4.30082 -5.42631,-5.41594 l -1.95536,-1.04763 -12.39025,-0.21668 c -6.81463,-0.11916 -12.62048,-0.30871 -12.90187,-0.42121 -0.78328,-0.31315 -0.87428,-1.45262 -0.91591,-11.46773 -0.0288,-6.957412 0.0608,-9.506748 0.35696,-10.144511 l 0.39562,-0.851829 7.30699,-6.2e-4 c 4.01884,-3.1e-4 11.39584,-0.09273 16.39329,-0.205365 l 9.08632,-0.204795 0.51612,-0.787388 c 0.41293,-0.629941 0.51614,-1.570345 0.51614,-4.702931 0,-4.490246 -0.30473,-5.443916 -1.83093,-5.729778 -0.52628,-0.09857 -8.62334,-0.128862 -17.99346,-0.06731 -19.82392,0.130228 -19.04588,0.02472 -22.24371,3.016154 -1.07268,1.00343 -2.36105,2.565877 -2.86307,3.472106 l -0.91273,1.647732 -0.0916,14.643475 -0.0916,14.64347 1.01937,1.92848 c 1.31699,2.49156 3.52949,4.70601 5.6901,5.69517 1.70927,0.78254 1.76586,0.78676 14.01203,1.04483 6.76272,0.14252 12.54101,0.35327 12.8406,0.46833 0.29963,0.11507 0.64811,0.57716 0.77439,1.02687 0.30672,1.09207 0.29619,30.62582 -0.0112,31.72679 -0.14162,0.50703 -0.56502,0.98599 -1.02687,1.16159 -0.4669,0.17751 -7.10562,0.2988 -16.35444,0.2988 h -15.56853 l -0.71142,0.75727 c -0.59872,0.63734 -0.73539,1.18925 -0.86273,3.48476 -0.15296,2.75732 0.2772,6.15387 0.85217,6.72884 0.17213,0.17214 1.46097,0.40094 2.8641,0.50846 3.58233,0.2745 22.93159,0.2852 28.88039,0.016 z m 67.59347,-0.74222 c 0.47956,-0.47968 0.55288,-1.14563 0.55288,-5.0222 0,-3.87637 -0.0734,-4.5426 -0.55285,-5.0226 -0.51169,-0.5122 -1.73392,-0.56643 -16.41708,-0.72837 -8.72533,-0.0962 -16.10936,-0.28585 -16.40896,-0.42136 -0.29962,-0.13552 -0.64754,-0.61435 -0.77318,-1.06406 -0.30254,-1.083 -0.29829,-30.62322 0.005,-31.70473 0.17802,-0.63579 0.51782,-0.91236 1.3939,-1.13459 0.63714,-0.16162 6.38559,-0.35568 12.77431,-0.43126 11.35514,-0.13431 11.64974,-0.15348 13.12617,-0.85382 2.01152,-0.95417 4.82386,-3.60159 5.87232,-5.52794 l 0.84814,-1.5583 -0.0885,-15.27059 -0.0886,-15.270578 -0.82574,-1.404561 c -1.07718,-1.832222 -3.49037,-4.069671 -5.47284,-5.074257 l -1.5796,-0.80045 h -17.62769 c -9.69521,0 -18.06507,0.08748 -18.59968,0.1944 -1.27994,0.255992 -1.43098,0.870046 -1.41865,5.767293 0.008,3.341475 0.0934,4.031757 0.55307,4.491463 0.49963,0.49969 1.83422,0.555588 16.66717,0.698064 16.08359,0.154491 16.12541,0.156566 16.66816,0.827287 0.46888,0.579414 0.57463,1.684001 0.7646,7.986599 0.12127,4.0228 0.12288,8.64349 0.004,10.2682 -0.19608,2.67125 -0.28931,3.00151 -0.97412,3.45021 -0.646,0.42328 -2.56862,0.53049 -13.08549,0.72968 l -12.32827,0.23349 -1.63538,0.82872 c -1.93403,0.98005 -4.62435,3.5718 -5.48173,5.28087 -0.3354,0.66862 -0.69645,1.78103 -0.80233,2.47203 -0.10584,0.69099 -0.20441,9.68166 -0.21903,19.97927 -0.0269,18.96613 0.054,20.57445 1.14034,22.67518 0.73753,1.42626 3.16713,3.89441 4.74903,4.82442 1.86408,1.09591 4.25843,1.21453 23.61875,1.17012 14.04517,-0.0322 15.12808,-0.0729 15.64268,-0.58763 z m 43.11238,0.39136 c 1.41834,-0.18411 2.77706,-0.58214 3.56653,-1.0448 1.70478,-0.99906 4.24047,-3.73204 5.05968,-5.4533 0.66087,-1.38856 0.66421,-1.51925 0.86518,-34.07317 0.20844,-33.757659 0.0344,-42.472864 -0.89259,-44.691374 -0.6618,-1.583882 -3.06083,-4.059354 -5.18389,-5.349042 l -1.78373,-1.08357 -18.58494,0.08455 c -10.22167,0.0465 -18.701,0.200412 -18.84287,0.342014 -0.46965,0.46868 -0.64184,16.647814 -0.56942,53.503602 0.0523,26.60306 0.16696,36.59301 0.42567,37.0764 0.26787,0.50057 0.71188,0.6899 1.82359,0.77762 3.31071,0.26121 31.99536,0.18644 34.11679,-0.0889 z m -24.77646,-16.31137 c -0.10668,-19.90742 0.11897,-63.80135 0.32911,-64.017141 0.14107,-0.144836 5.00278,-0.214531 10.80377,-0.154878 8.121,0.08351 10.63991,0.201038 10.94985,0.510893 0.69971,0.699547 0.80889,5.315622 0.81109,34.290246 0.003,28.79947 -0.10469,33.27339 -0.81159,33.98098 -0.30985,0.31015 -2.8741,0.42454 -11.22791,0.50087 l -10.82638,0.0989 -0.0279,-5.2099 z m -411.328187,-8.1371 c 5.755671,-2.91138 8.35648,-11.68896 5.603234,-18.91061 -0.858458,-2.25169 -3.365779,-5.6007 -5.20792,-6.95616 -2.438809,-1.79449 -4.453907,-2.40631 -7.527517,-2.28546 -2.23699,0.0879 -2.95723,0.25973 -4.71078,1.12354 -4.24551,2.09137 -6.73032,6.63132 -6.73871,12.31215 -0.0101,6.81556 3.72208,12.67596 9.59877,15.0725 2.03866,0.83137 7.026342,0.63373 8.982923,-0.35596 z m -6.757043,-13.32889 c -0.70092,-0.50774 -1.48848,-1.33716 -1.75014,-1.84315 -1.05834,-2.04662 -0.24985,-5.84826 1.48557,-6.98535 0.89639,-0.58734 3.43965,-1.07942 3.94967,-0.76421 0.3038,0.18776 0.30271,0.43053 -0.005,1.17412 -0.46849,1.13104 -0.20413,2.57451 0.60572,3.30742 0.464663,0.42051 0.990396,0.50588 2.460493,0.39955 1.727621,-0.12497 1.869046,-0.0867 1.862761,0.50404 -0.0097,0.90991 -1.029793,3.01513 -1.787481,3.68885 -0.884834,0.78678 -2.757083,1.41203 -4.276923,1.4283 -0.93195,0.01 -1.6092,-0.23213 -2.54438,-0.90957 z m 39.43465,11.93389 c 8.545787,-4.18107 11.09254,-16.7089 4.926436,-24.23382 -3.163112,-3.86016 -8.242973,-5.03528 -13.443066,-3.10976 -3.519449,1.30319 -7.156398,6.25932 -8.072151,11.00006 -1.403304,7.26469 2.109426,14.79509 7.865373,16.86136 2.311868,0.82991 6.473646,0.58286 8.723408,-0.51784 z m -9.413718,-12.78205 c -1.26224,-0.62177 -2.880707,-3.02971 -2.754624,-4.09831 0.08447,-0.71593 0.187657,-0.75402 1.831879,-0.67629 1.572487,0.0743 1.806538,9.3e-4 2.40061,-0.75446 0.781812,-0.99391 0.845201,-2.20705 0.165986,-3.17677 -1.772731,-2.53092 3.332462,-1.87872 5.27992,0.67452 1.946548,2.55206 0.943375,6.57697 -2.021369,8.1101 -1.166003,0.60296 -3.597731,0.56388 -4.902402,-0.0788 z"
         id="path3752"
         inkscape:connector-curvature="0" />
      <path
         style="fill:#714320;stroke-width:0.3097561"
         d="m -147.40903,199.92861 -6.00167,-0.0914 -2.09204,-2.09203 -2.09203,-2.09204 -0.21172,-10.36882 c -0.11645,-5.70285 -0.16812,-36.03729 -0.11483,-67.40986 l 0.0969,-57.041031 1.2548,-1.502869 c 0.69015,-0.826578 1.93334,-1.842626 2.76266,-2.257884 l 1.50785,-0.755015 26.66417,-0.105906 c 14.6653,-0.05825 27.256589,-0.180051 27.980644,-0.270672 1.313031,-0.164336 1.316463,-0.16815 1.316463,-1.46224 0,-0.713611 -0.496189,-3.433649 -1.102642,-6.044528 -0.606452,-2.61088 -1.059471,-5.023772 -1.006707,-5.361983 0.08649,-0.554366 0.350886,-0.459813 2.684594,0.96006 3.140119,1.910503 9.65815,6.516469 13.768347,9.729398 l 3.02194,2.362242 H 41.926335 c 66.494255,0 167.358365,0.0929 224.142485,0.206437 l 103.24382,0.206436 1.26632,0.965845 c 0.69645,0.531215 1.68746,1.647098 2.20221,2.47974 l 0.9359,1.513894 v 66.311996 66.31199 l -0.85883,1.74882 c -0.59749,1.21669 -1.36021,2.13566 -2.50664,3.02013 l -1.64784,1.2713 -255.05557,-0.0704 c -140.280551,-0.0387 -257.7563,-0.11145 -261.05722,-0.1617 z m 115.345582,-14.59244 c 1.194001,-0.73675 2.520033,-2.07147 3.460267,-3.48294 l 0.743384,-1.11597 -0.08841,-52.83245 -0.08841,-52.832462 -0.929268,-1.313555 c -1.592571,-2.251158 -2.904292,-3.091722 -5.308071,-3.401467 -2.405148,-0.30992 -25.649804,-0.333102 -28.370123,-0.02829 l -1.77331,0.198698 2.940657,4.026829 c 4.748695,6.502688 5.445327,7.365526 5.718442,7.082793 0.142469,-0.147487 0.620383,-1.383281 1.06203,-2.746208 0.995008,-3.070618 1.197449,-3.426237 1.639424,-2.879904 0.54944,0.679165 3.766861,9.08987 5.663683,14.805514 3.833319,11.550822 5.33545,22.428932 4.610658,33.389382 -0.194818,2.94605 -0.268887,5.44178 -0.164601,5.54607 0.153915,0.15391 2.796156,-0.42434 6.161396,-1.34841 1.239,-0.34023 0.824091,0.98158 -1.934136,6.16169 -8.485353,15.93601 -13.606517,22.1286 -25.335439,30.636 -2.614692,1.89653 -4.640506,3.54731 -4.501809,3.6684 0.138693,0.12109 1.369946,0.4329 2.736113,0.69291 4.547984,0.86556 7.265335,2.51914 5.845661,3.55723 -1.399651,1.02345 -6.443562,2.14127 -13.2857,2.94436 -5.004404,0.58738 -23.229246,0.47221 -28.59778,-0.18072 -6.03226,-0.73366 -10.95024,-2.12587 -11.67984,-3.3064 -0.39665,-0.64178 0.90389,-1.5447 3.3279,-2.31044 1.34414,-0.42462 2.63671,-0.77203 2.87237,-0.77203 0.23567,0 0.80722,-0.144 1.27013,-0.31999 l 0.84166,-0.32 -1.20869,-0.8625 c -0.66477,-0.47437 -2.80083,-1.96821 -4.7468,-3.31964 -12.88142,-8.94583 -20.32958,-21.53199 -23.54237,-39.78274 -1.39804,-7.94176 -2.08551,-31.595123 -0.91829,-31.595123 0.14844,0 1.00298,1.06667 1.89897,2.37038 2.1735,3.162545 3.90964,5.373523 4.21949,5.373523 0.32344,0 0.67322,-0.7797 2.4134,-5.379839 2.76247,-7.302574 6.78483,-14.443979 12.31818,-21.870068 l 2.41704,-3.243807 -1.04147,-0.270222 c -0.5728,-0.148623 -6.40799,-0.222202 -12.96708,-0.163509 l -11.92561,0.106713 -1.53296,0.77439 c -2.40339,1.214101 -3.21561,2.47816 -3.59218,5.590552 -0.20738,1.713964 -0.28636,20.230861 -0.22873,53.6237 l 0.088,51.00571 0.93907,1.34307 c 0.51649,0.73868 1.61252,1.79608 2.43562,2.34977 l 1.49654,1.00671 52.855854,-0.001 c 50.89648,-0.001 52.890299,-0.0224 53.78512,-0.57455 z m 70.982107,-11.57486 c 0.39414,-0.39414 0.531941,-1.40503 0.653929,-4.79704 0.169886,-4.72397 -0.170582,-6.12629 -1.559349,-6.42266 -0.380223,-0.0811 -6.436429,-0.18993 -13.458231,-0.24176 -9.879374,-0.0729 -12.856865,-0.1842 -13.164635,-0.49198 -0.565144,-0.56516 -0.588243,-67.052582 -0.02348,-67.617311 0.272167,-0.272154 4.031547,-0.448229 13.784148,-0.645593 15.013686,-0.303837 13.986514,-0.113572 14.368598,-2.661499 0.230777,-1.538921 -0.0052,-7.355601 -0.331356,-8.167286 -0.113048,-0.281352 -0.50953,-0.593078 -0.881067,-0.69272 -0.37154,-0.09965 -7.513128,-0.183078 -15.870197,-0.185405 l -15.1946802,-0.0042 -1.6035764,0.799097 c -2.3129087,1.152568 -4.4488227,3.20845 -5.66639968,5.454076 l -1.06019912,1.955364 v 37.945127 37.94512 l 0.82710454,1.76452 c 0.95864253,2.04515 2.91418866,4.11925 5.08446706,5.39273 2.0476397,1.20152 3.921215,1.31527 20.3468668,1.23531 11.717606,-0.057 13.306391,-0.1222 13.748057,-0.56386 z m 45.772429,-0.36948 c 2.227996,-1.09006 4.52397,-3.3754 5.599381,-5.57347 1.350125,-2.75956 1.483568,-7.3214 1.301961,-44.5089 L 91.431171,90.288748 90.596895,88.642385 C 89.53432,86.545497 87.016616,83.873984 85.024364,82.729423 l -1.54878,-0.889781 -15.292409,-0.0028 -15.292409,-0.0028 -1.807467,1.097977 c -2.181978,1.325483 -4.065041,3.392321 -5.281726,5.79719 l -0.902666,1.784192 0.08346,37.554839 0.08346,37.55458 0.830165,1.77121 c 0.983268,2.09787 3.254577,4.62408 5.163099,5.74255 1.905725,1.11683 4.509228,1.27595 19.444931,1.18845 l 12.428437,-0.0728 z M 59.378345,162.16056 c -1.574335,-0.11547 -1.83116,-0.22728 -2.090854,-0.91032 -0.32753,-0.86148 -0.419918,-63.912329 -0.09652,-65.869034 0.151106,-0.914245 0.367755,-1.215244 1.003297,-1.393902 0.44582,-0.125328 5.177797,-0.227866 10.515508,-0.227866 8.967542,0 9.735722,0.04212 10.110238,0.554404 0.663758,0.90792 0.876288,12.905298 0.726893,41.032968 -0.124832,23.50219 -0.182812,25.84711 -0.650662,26.31496 -0.450679,0.45068 -1.568078,0.52078 -9.118362,0.57202 -4.732609,0.0321 -9.412401,-9.3e-4 -10.399541,-0.0732 z m 76.238615,12.00413 c 0.73776,-0.14258 1.49044,-0.40828 1.67261,-0.59046 0.41745,-0.41744 0.69757,-5.93335 0.41584,-8.18825 -0.38991,-3.12076 0.56535,-2.91943 -14.55498,-3.06772 -10.03166,-0.0984 -13.27948,-0.22247 -13.57571,-0.51864 -0.30682,-0.30677 -0.40694,-7.47624 -0.47223,-33.81376 l -0.0829,-33.424442 0.70236,-0.400989 c 0.52904,-0.302037 3.87464,-0.444338 13.55724,-0.576648 7.07019,-0.09661 13.0973,-0.28518 13.39359,-0.419044 0.29629,-0.133864 0.69498,-0.821467 0.88598,-1.528002 0.43631,-1.613969 0.22597,-8.152105 -0.29294,-9.105956 l -0.37915,-0.696951 h -15.92495 -15.92495 l -1.81907,1.066131 c -2.27602,1.333937 -4.097265,3.289616 -5.320925,5.713677 l -0.94685,1.875697 v 37.508507 37.5085 l 0.832175,1.76191 c 0.976141,2.06673 3.40144,4.74637 5.30613,5.86259 0.99471,0.58294 2.0059,0.84638 3.8763,1.00985 3.60264,0.31489 27.04559,0.33452 28.65238,0.024 z m 48.02136,-1.08135 c 2.21278,-1.34419 3.78051,-3.06421 5.02734,-5.51568 l 0.90139,-1.77227 V 127.98602 90.176647 l -0.80586,-1.590313 c -1.11546,-2.201266 -3.50526,-4.628985 -5.7172,-5.807929 l -1.86008,-0.991427 -14.93589,0.100865 c -14.62875,0.09879 -14.9662,0.11488 -16.41218,0.782605 -1.88524,0.870567 -4.57983,3.560219 -5.61673,5.606428 l -0.80572,1.590015 v 38.302099 38.30209 l 1.06342,1.74418 c 1.40059,2.29721 3.0069,3.81947 5.45292,5.16763 l 2.00196,1.10339 14.91268,-0.13005 14.91265,-0.13006 z m -26.13102,-10.99732 -1.85854,-0.18024 -0.23836,-1.85854 c -0.13112,-1.02219 -0.20081,-16.17397 -0.15488,-33.67062 0.0672,-25.59272 0.16216,-31.890776 0.48592,-32.214629 0.31381,-0.313892 2.64302,-0.402553 10.57551,-0.402553 9.7351,0 10.20293,0.02667 10.86732,0.619512 l 0.69432,0.619512 -0.15497,33.074168 c -0.1462,31.20412 -0.18629,33.10875 -0.70866,33.68597 -0.52816,0.58363 -0.94748,0.60942 -9.10141,0.55974 -4.70123,-0.0286 -9.38406,-0.13318 -10.40625,-0.23232 z m 74.46438,12.04834 c 3.72816,-0.48393 6.62524,-2.64272 8.65359,-6.44827 l 1.00175,-1.87946 -0.0879,-20.69067 -0.0879,-20.69067 -0.90287,-1.62957 c -1.13033,-2.04008 -3.59169,-4.39216 -5.7825,-5.52574 l -1.67804,-0.86828 -12.34056,-0.16991 c -12.27548,-0.16902 -12.34347,-0.17354 -12.89676,-0.8573 -0.45277,-0.55949 -0.59823,-1.55446 -0.78195,-5.34774 -0.24309,-5.01957 0.0596,-14.837893 0.47827,-15.515382 0.42802,-0.692538 4.10166,-0.867559 18.63164,-0.887659 l 13.84433,-0.01914 0.86909,-0.749086 0.86911,-0.74909 -0.0217,-4.129569 c -0.0276,-5.237176 -0.15206,-5.751123 -1.45214,-5.992693 -0.5523,-0.102631 -9.08883,-0.136039 -18.97005,-0.07424 -14.39446,0.09002 -18.21218,0.198711 -19.20488,0.546756 -1.86808,0.654946 -5.4904,4.390239 -6.15473,6.346701 -0.87262,2.569784 -1.15127,8.539245 -0.93262,19.979262 l 0.20423,10.68659 0.85768,1.71601 c 1.27561,2.55219 3.41865,4.7653 5.70382,5.89028 l 1.96113,0.96547 12.26528,0.27098 c 6.92739,0.15304 12.51459,0.40438 12.83809,0.57752 0.52442,0.28065 0.59093,0.95838 0.787,8.02035 0.30279,10.90559 -0.0644,24.4123 -0.67759,24.92117 -0.34956,0.29012 -4.33999,0.42222 -16.29057,0.53928 -11.83219,0.1159 -15.99791,0.25254 -16.50238,0.54127 -0.96226,0.55078 -1.44857,3.23207 -1.26765,6.98931 0.16975,3.52517 0.36942,3.85044 2.59192,4.22276 2.15036,0.36023 31.71252,0.36947 34.47589,0.0108 z m 63.44372,-0.70111 c 0.47956,-0.47968 0.55288,-1.14563 0.55288,-5.0222 0,-3.87637 -0.0734,-4.5426 -0.55285,-5.0226 -0.51169,-0.5122 -1.73392,-0.56643 -16.41708,-0.72837 -8.72533,-0.0962 -16.10936,-0.28585 -16.40896,-0.42136 -0.29962,-0.13552 -0.64754,-0.61435 -0.77318,-1.06406 -0.30254,-1.083 -0.29829,-30.62322 0.005,-31.70473 0.17802,-0.63579 0.51782,-0.91236 1.3939,-1.13459 0.63714,-0.16162 6.38559,-0.35568 12.77431,-0.43126 11.35514,-0.13431 11.64974,-0.15348 13.12617,-0.85382 2.01152,-0.95417 4.82386,-3.60159 5.87232,-5.52794 l 0.84814,-1.5583 -0.0885,-15.27059 -0.0886,-15.270578 -0.82574,-1.404561 c -1.07718,-1.832222 -3.49037,-4.069671 -5.47284,-5.074257 l -1.5796,-0.80045 h -17.62769 c -9.69521,0 -18.06507,0.08748 -18.59968,0.1944 -1.27994,0.255992 -1.43098,0.870046 -1.41865,5.767293 0.008,3.341475 0.0934,4.031757 0.55307,4.491463 0.49963,0.49969 1.83422,0.555588 16.66717,0.698064 16.08359,0.154491 16.12541,0.156566 16.66816,0.827287 0.46888,0.579414 0.57463,1.684001 0.7646,7.986599 0.12127,4.0228 0.12288,8.64349 0.004,10.2682 -0.19608,2.67125 -0.28931,3.00151 -0.97412,3.45021 -0.646,0.42328 -2.56862,0.53049 -13.08549,0.72968 l -12.32827,0.23349 -1.63538,0.82872 c -1.93403,0.98005 -4.62435,3.5718 -5.48173,5.28087 -0.3354,0.66862 -0.69645,1.78103 -0.80233,2.47203 -0.10584,0.69099 -0.20441,9.68166 -0.21903,19.97927 -0.0269,18.96613 0.054,20.57445 1.14034,22.67518 0.73753,1.42626 3.16713,3.89441 4.74903,4.82442 1.86408,1.09591 4.25843,1.21453 23.61875,1.17012 14.04517,-0.0322 15.12808,-0.0729 15.64268,-0.58763 z m 43.11238,0.39136 c 1.41834,-0.18411 2.77706,-0.58214 3.56653,-1.0448 1.70478,-0.99906 4.24047,-3.73204 5.05968,-5.4533 0.66087,-1.38856 0.66421,-1.51925 0.86518,-34.07317 0.20844,-33.757659 0.0344,-42.472864 -0.89259,-44.691374 -0.6618,-1.583882 -3.06083,-4.059354 -5.18389,-5.349042 l -1.78373,-1.08357 -18.58494,0.08455 c -10.22167,0.0465 -18.701,0.200412 -18.84287,0.342014 -0.46965,0.46868 -0.64184,16.647814 -0.56942,53.503602 0.0523,26.60306 0.16696,36.59301 0.42567,37.0764 0.26787,0.50057 0.71188,0.6899 1.82359,0.77762 3.31071,0.26121 31.99536,0.18644 34.11679,-0.0889 z m -24.77646,-16.31137 c -0.10668,-19.90742 0.11897,-63.80135 0.32911,-64.017141 0.14107,-0.144836 5.00278,-0.214531 10.80377,-0.154878 8.121,0.08351 10.63991,0.201038 10.94985,0.510893 0.69971,0.699547 0.80889,5.315622 0.81109,34.290246 0.003,28.79947 -0.10469,33.27339 -0.81159,33.98098 -0.30985,0.31015 -2.8741,0.42454 -11.22791,0.50087 l -10.82638,0.0989 -0.0279,-5.2099 z m -411.450541,-7.84332 c 4.348171,-2.12314 7.260182,-7.2782 7.241367,-12.81922 -0.02075,-6.11444 -3.666069,-12.3856 -8.616018,-14.82245 -1.940458,-0.95528 -2.237988,-1.01028 -5.465998,-1.01028 -4.06848,0 -5.17936,0.44176 -7.95583,3.16371 -2.19182,2.14879 -3.53922,4.94077 -4.03891,8.36913 -0.30822,2.11473 -0.28202,2.87649 0.17982,5.22858 0.74153,3.77655 2.04853,6.32866 4.52074,8.8274 2.10887,2.13151 4.43067,3.53349 6.62326,3.99934 2.26355,0.48093 5.413244,0.0884 7.511569,-0.93621 z m -6.421229,-13.76474 c -2.08378,-1.41596 -2.71095,-4.28365 -1.51373,-6.92145 0.45976,-1.01299 0.91618,-1.46941 1.92917,-1.92917 0.72981,-0.33124 1.63683,-0.60531 2.01561,-0.60905 0.64259,-0.006 0.68406,0.11584 0.61951,1.82557 -0.0592,1.56692 0.0396,1.94835 0.68177,2.63293 0.641012,0.68335 1.015132,0.80055 2.55549,0.80055 0.992499,0 1.804544,0.13032 1.804544,0.28959 0,1.25664 -1.619991,3.42519 -3.159618,4.22953 -1.350766,0.70567 -3.643396,0.55764 -4.932746,-0.3185 z m 39.387132,12.46853 c 4.853247,-2.24838 8.215476,-7.63468 8.56831,-13.72647 0.366491,-6.32752 -2.227351,-11.4822 -7.110396,-14.13033 -1.846298,-1.00127 -2.076143,-1.04772 -5.184388,-1.04772 -2.933861,0 -3.425144,0.0848 -5.01563,0.86586 -7.649136,3.75626 -10.911633,14.31409 -6.88108,22.26801 0.914651,1.80497 3.522946,4.70326 4.922975,5.47032 2.067049,1.13251 2.798108,1.27902 5.89899,1.18222 2.539387,-0.0793 3.416467,-0.24037 4.801219,-0.88189 z m -9.592484,-13.50164 c -1.044568,-0.57621 -2.846677,-3.23125 -2.457416,-3.62051 0.106154,-0.10615 0.732992,-0.26577 1.392974,-0.3547 2.207427,-0.29746 2.442575,-0.40133 2.984184,-1.3182 0.658551,-1.11484 0.689065,-2.20357 0.08417,-3.00331 -0.250128,-0.3307 -0.459214,-0.77552 -0.464634,-0.98847 -0.01543,-0.60686 1.807826,-0.46224 3.304047,0.26207 3.514242,1.70121 3.843758,6.35259 0.620516,8.75909 -1.199035,0.8952 -4.068265,1.03386 -5.463838,0.26403 z"
         id="path3750"
         inkscape:connector-curvature="0" />
      <path
         style="fill:#4e2a0d;stroke-width:0.3097561"
         d="m -144.21996,199.86012 -9.00772,-0.1641 -1.11593,-0.85168 c -0.61377,-0.46843 -1.64804,-1.50104 -2.29838,-2.29469 l -1.18244,-1.443 -0.11062,-66.29176 c -0.0816,-48.882881 -0.0182,-66.600257 0.24134,-67.466492 0.50862,-1.697609 3.01467,-4.157794 4.70491,-4.618808 0.98094,-0.26755 9.01758,-0.425041 28.86185,-0.565597 30.401216,-0.215331 28.285083,-0.04807 27.937592,-2.208213 -0.09592,-0.596281 -0.675374,-3.28384 -1.287668,-5.972354 -0.612295,-2.688513 -1.020346,-4.981125 -0.906777,-5.094692 0.422594,-0.422595 7.140835,3.986056 14.319427,9.396707 l 5.092911,3.838631 H 41.92676 c 66.49402,0 167.35794,0.0929 224.14206,0.206437 l 103.24382,0.206436 1.27075,0.969223 c 0.78957,0.602241 1.658,1.717373 2.29359,2.945129 l 1.02284,1.975905 -0.10556,65.691728 c -0.0899,55.93357 -0.1713,65.87578 -0.54778,66.93075 -0.49638,1.39082 -3.24014,4.32773 -4.48545,4.8012 -0.84765,0.32227 -495.3086,0.33117 -512.98099,0.009 z M -31.953965,185.4759 c 1.632867,-1.03078 3.699662,-3.45646 4.087399,-4.79714 0.220125,-0.76113 0.29382,-17.74198 0.23136,-53.31079 l -0.09166,-52.193898 -0.767922,-1.239024 c -0.959625,-1.548333 -1.978539,-2.508164 -3.568663,-3.361731 -1.209669,-0.649341 -1.587612,-0.66737 -15.95244,-0.760978 -8.092379,-0.05273 -15.167819,-0.01131 -15.723202,0.09205 -1.348691,0.251005 -1.884516,-0.651578 6.21967,10.476835 0.99696,1.368989 1.642225,2.003663 1.838028,1.80786 0.165952,-0.165951 0.67661,-1.454592 1.134795,-2.863645 0.458185,-1.40905 0.97882,-2.610497 1.156964,-2.669878 0.811369,-0.270457 5.985343,13.857974 7.965152,21.750215 2.238477,8.923384 2.545164,12.988724 2.24331,29.736584 l -0.0335,1.85854 0.929268,-0.0968 c 0.511098,-0.0532 2.015812,-0.38384 3.343811,-0.73465 1.327999,-0.35082 2.488197,-0.56419 2.578218,-0.47417 0.440925,0.44092 -5.463243,11.51458 -9.043556,16.96178 -4.070812,6.19347 -9.781188,12.58819 -14.534572,16.27644 -2.460495,1.90915 -6.520701,4.61269 -9.693263,6.45438 -1.412881,0.82018 -2.517407,1.64564 -2.454504,1.83434 0.0629,0.18871 0.725767,0.52013 1.473032,0.73648 3.124755,0.9047 2.736528,1.90931 -1.104556,2.85823 -3.652768,0.9024 -7.752768,1.25347 -14.638851,1.25347 -6.977926,0 -11.83365,-0.4064 -15.227893,-1.2745 -3.57409,-0.9141 -3.93521,-1.66725 -1.34811,-2.81165 l 1.37592,-0.60863 -4.59089,-2.79136 c -6.01723,-3.6586 -8.79713,-5.68181 -11.77566,-8.57031 -6.25261,-6.06362 -10.52792,-13.20044 -13.71087,-22.88772 -2.5303,-7.70097 -3.527,-13.30472 -4.07498,-22.91074 -0.33179,-5.81635 -0.17501,-18.894372 0.23116,-19.28254 0.0999,-0.09544 0.37475,0.113498 0.61087,0.464306 0.23611,0.350808 1.49031,2.142979 2.78711,3.982602 1.96861,2.792662 2.42525,3.275372 2.7664,2.924372 0.22472,-0.23123 1.19855,-2.441574 2.16406,-4.911878 2.99886,-7.672749 7.45913,-15.710724 12.17412,-21.939318 2.85334,-3.76933 3.02896,-4.081671 2.48778,-4.4246 -0.51269,-0.324881 -19.34992,-0.330512 -23.66401,-0.0071 -2.80847,0.210558 -3.25271,0.330933 -4.57258,1.239028 -0.88926,0.611833 -1.82331,1.635986 -2.38458,2.61462 l -0.92268,1.608808 -0.003,52.58725 -0.003,52.58725 0.81266,1.31031 c 1.24427,2.00622 1.99229,2.72125 3.6788,3.51657 l 1.54878,0.73037 52.432381,0.003 52.432378,0.003 1.18132,-0.74573 z m 70.891309,-11.73272 c 0.483259,-0.48323 0.552871,-1.15939 0.552871,-5.37028 0,-4.59839 -0.03117,-4.8427 -0.685602,-5.37298 -0.628018,-0.50889 -1.77274,-0.56778 -13.629269,-0.70107 -7.119016,-0.08 -13.169111,-0.24388 -13.444651,-0.36411 -0.326403,-0.14241 -0.568338,-0.77923 -0.69426,-1.82743 -0.254873,-2.12161 -0.25619,-61.524855 -0.0015,-63.962379 0.137699,-1.317445 0.348086,-1.946569 0.696952,-2.084131 0.27484,-0.108372 6.393146,-0.299383 13.596236,-0.424472 11.795888,-0.204844 13.149433,-0.280434 13.62927,-0.761145 0.458076,-0.45891 0.532743,-1.208473 0.532743,-5.348134 0,-4.202473 -0.06796,-4.864084 -0.534701,-5.205138 -0.730439,-0.533846 -7.542339,-0.797839 -20.586667,-0.797839 H 7.7225475 l -1.8995856,0.958906 c -2.3764954,1.199651 -4.83077053,3.495486 -6.00791502,5.62006 l -0.90288328,1.629571 -0.1548781,8.476274 c -0.085183,4.661957 -0.085183,21.876647 0,38.254877 l 0.1548781,29.7786 0.72168215,1.46535 c 1.67160505,3.39414 5.16735775,6.08228 8.41612325,6.47179 0.9370123,0.11234 8.145598,0.18451 16.019081,0.16039 13.292781,-0.0407 14.354913,-0.0834 14.868294,-0.59671 z m 45.91789,-0.34156 c 2.073105,-1.08445 4.64978,-3.66853 5.585581,-5.60164 1.191998,-2.46233 1.310727,-6.86797 1.168936,-43.37469 L 91.477414,90.352121 90.502652,88.436927 C 89.32903,86.131016 86.933085,83.653921 84.86046,82.603643 l -1.519159,-0.769815 -15.265788,0.0028 -15.265785,0.0028 -1.573177,0.902335 c -1.973023,1.131672 -4.484798,3.853957 -5.533322,5.997061 l -0.80199,1.639207 0.08229,37.777179 0.08229,37.77742 0.910875,1.79903 c 1.070297,2.11391 3.403204,4.59099 5.228813,5.55197 1.907277,1.00397 3.6824,1.10488 18.485923,1.05089 l 13.474392,-0.0491 z M 59.881466,162.1106 c -1.221517,-0.11265 -2.336639,-0.32096 -2.478049,-0.46291 -0.141406,-0.14195 -0.257103,-15.24217 -0.257103,-33.55603 0,-32.603811 0.01255,-33.307109 0.601277,-33.737645 0.490049,-0.358363 2.438239,-0.438823 10.531708,-0.434957 5.715384,0.0028 10.127649,0.129395 10.395065,0.298413 0.40745,0.257525 0.474831,4.38514 0.547484,33.537189 0.06778,27.19599 0.0082,33.34555 -0.327244,33.80436 -0.374589,0.51228 -1.119286,0.5693 -8.601144,0.65862 -4.505078,0.0538 -9.190473,0.006 -10.411994,-0.10704 z m 77.248514,11.63317 c 0.46649,-0.46592 0.56861,-1.22408 0.65327,-4.84974 0.10998,-4.7098 -0.22694,-6.06623 -1.57732,-6.35033 -0.38022,-0.08 -6.33662,-0.20249 -13.23644,-0.27219 -6.89982,-0.0697 -12.7696,-0.22281 -13.04395,-0.34022 -0.35567,-0.15221 -0.55505,-0.80877 -0.69475,-2.28779 -0.10776,-1.14087 -0.19691,-16.25236 -0.19812,-33.58109 l -0.002,-31.506784 0.69695,-0.398096 c 0.5248,-0.299757 3.92709,-0.43635 13.77358,-0.55297 12.01881,-0.142349 13.12132,-0.199623 13.62927,-0.708013 0.48257,-0.483006 0.55264,-1.159067 0.55264,-5.332231 0,-4.180063 -0.0695,-4.848426 -0.55456,-5.332231 -0.52088,-0.519526 -1.51836,-0.546472 -16.41708,-0.443497 l -15.8625,0.109638 -1.60738,0.909023 c -2.175,1.230029 -4.125259,3.276941 -5.30893,5.572035 l -0.982475,1.904978 v 37.780818 37.78081 l 1.000277,1.87671 c 1.808842,3.39374 4.723228,5.79514 7.779368,6.41004 0.70809,0.14247 7.93843,0.23751 16.06743,0.21121 13.72945,-0.0444 14.81931,-0.0871 15.33293,-0.60008 z m 45.98259,-0.27399 c 2.20949,-1.17764 4.56822,-3.66643 5.65795,-5.96993 l 0.79653,-1.68376 V 127.75613 89.696163 l -1.08684,-1.840314 c -1.36924,-2.318506 -3.47571,-4.240998 -5.9471,-5.427661 l -1.92293,-0.923333 -14.8039,0.248715 -14.80386,0.248716 -1.6539,0.909332 c -1.83657,1.009771 -4.40129,3.634852 -5.33019,5.455657 -0.59052,1.157518 -0.60487,2.103238 -0.60203,39.685305 l 0.003,38.49954 0.88978,1.54878 c 1.17378,2.04311 3.9563,4.63703 5.98966,5.58368 l 1.63303,0.76027 14.67005,0.003 14.67005,0.003 1.84079,-0.98111 z m -25.19234,-11.32512 c -1.12175,-0.0725 -1.90441,-0.293 -2.16829,-0.61098 -0.33838,-0.40777 -0.41294,-6.47022 -0.41294,-33.58281 0,-30.3995 0.0417,-33.126909 0.51367,-33.598844 0.4551,-0.455084 1.63793,-0.518132 10.37683,-0.55311 7.52639,-0.03014 10.02829,0.05484 10.56011,0.358614 l 0.69696,0.398096 -0.005,33.055564 c -0.004,26.02188 -0.0879,33.22034 -0.39621,33.82995 l -0.39162,0.77439 -8.50932,0.0213 c -4.6801,0.0117 -9.29918,-0.0298 -10.26463,-0.0921 z m 77.0261,11.39067 c 2.0587,-1.01115 4.79691,-3.78747 5.83422,-5.91541 l 0.83845,-1.72 -0.0839,-20.73732 -0.0839,-20.73731 -0.75534,-1.4783 c -0.90798,-1.77706 -3.9926,-4.81738 -5.91067,-5.82576 -1.37219,-0.7214 -1.52666,-0.73151 -13.85685,-0.90702 -11.30176,-0.16087 -12.51981,-0.22806 -13.00975,-0.71765 -0.48768,-0.48733 -0.54933,-1.50742 -0.6303,-10.4294 -0.0846,-9.324335 -0.0566,-9.922412 0.49122,-10.470176 0.51878,-0.518789 1.30729,-0.602881 7.369,-0.785928 3.73343,-0.112736 10.87594,-0.205319 15.87224,-0.205737 l 9.08419,-6.2e-4 0.94755,-0.947531 0.94754,-0.947529 -0.15358,-4.523052 c -0.12505,-3.684152 -0.24632,-4.590883 -0.65371,-4.888781 -0.65693,-0.480361 -8.64625,-0.77562 -20.4952,-0.757444 -12.41967,0.01905 -17.3548,0.327267 -19.14921,1.195928 -1.74985,0.847084 -4.69944,3.928866 -5.50644,5.75319 -0.9893,2.236529 -1.26245,7.402951 -1.04828,19.82863 l 0.1922,11.15122 0.95114,1.93027 c 1.13107,2.29543 3.92034,5.09145 5.9944,6.00891 1.32021,0.58399 2.36031,0.65389 13.46262,0.90468 6.61751,0.14949 12.37643,0.35828 12.79757,0.46398 0.424,0.10641 0.84607,0.49156 0.94569,0.86291 0.23569,0.87864 0.23449,30.51352 0,31.39258 -0.0996,0.37154 -0.41136,0.77438 -0.69271,0.89521 -0.28135,0.12082 -7.66776,0.3047 -16.41425,0.40862 l -15.9027,0.18894 -0.57484,0.7103 c -0.7668,0.94749 -1.016,2.83904 -0.86602,6.57335 0.13775,3.42915 0.37499,3.90605 2.15894,4.33975 0.57252,0.13919 8.98621,0.22928 18.69707,0.2002 l 17.65609,-0.0529 1.54879,-0.76069 z m 60.72217,-0.0821 0.83947,-0.99763 -0.15178,-4.19079 c -0.0835,-2.30492 -0.2532,-4.43092 -0.37716,-4.72443 -0.124,-0.2935 -0.66502,-0.60924 -1.20226,-0.70164 -0.53721,-0.0924 -7.97433,-0.27043 -16.52688,-0.39562 -12.10329,-0.17717 -15.63928,-0.31688 -15.95244,-0.63031 -0.31951,-0.31978 -0.40234,-3.68176 -0.40234,-16.33103 0,-15.67421 0.0102,-15.93853 0.63862,-16.56697 0.6175,-0.6175 1.0528,-0.64466 13.16464,-0.82145 l 12.52601,-0.18282 1.57015,-0.88148 c 1.96048,-1.10058 4.91304,-4.16112 5.71144,-5.92027 0.571,-1.2581 0.60396,-2.13004 0.61037,-16.15481 l 0.007,-14.824939 -0.96399,-1.80865 c -1.72646,-3.239126 -4.87203,-5.799022 -7.70918,-6.273797 -0.59628,-0.09978 -9.00907,-0.220609 -18.69509,-0.268503 l -17.6109,-0.08708 -0.58727,0.725217 c -0.5171,0.638596 -0.58723,1.270337 -0.58723,5.289234 0,4.245517 0.0455,4.605193 0.65163,5.154096 0.61837,0.55995 1.47382,0.597991 16.75208,0.744961 15.48501,0.148958 16.11723,0.177862 16.53983,0.756155 0.31682,0.433537 0.45317,1.686516 0.48876,4.491463 0.0774,6.095103 -0.0684,15.603283 -0.24867,16.220733 -0.0899,0.3079 -0.52572,0.69755 -0.96845,0.86588 -0.44834,0.17045 -6.16654,0.38448 -12.90584,0.48304 l -12.10081,0.17699 -1.88338,1.03375 c -2.30501,1.26516 -4.12223,3.1855 -5.38888,5.69468 l -0.9574,1.89662 0.088,20.35437 0.088,20.35437 0.73695,1.49689 c 1.0011,2.03344 3.7863,4.97304 5.496,5.80068 2.07227,1.00317 4.46724,1.12954 22.31452,1.17739 l 16.15722,0.0433 z m 44.9138,0.34809 c 2.15603,-0.80666 5.23048,-3.59741 6.51228,-5.91131 l 0.91273,-1.64769 0.1655,-17.96585 c 0.091,-9.88122 0.16073,-26.95652 0.15488,-37.94512 l -0.0105,-19.979269 -1.04543,-1.927674 c -1.2253,-2.259278 -3.64685,-4.662338 -5.79482,-5.750542 l -1.52317,-0.77167 -18.39703,-0.111643 -18.39707,-0.111642 -0.65293,0.874491 -0.65297,0.874488 -0.0816,44.553561 -0.0816,44.55356 0.80605,0.95793 0.80605,0.95792 h 17.77182 c 17.28721,0 17.81915,-0.0177 19.50785,-0.64954 z m -26.59653,-11.63745 c -0.11359,-0.11358 -0.20651,-15.50988 -0.20651,-34.21401 V 93.942389 l 1.0067,-0.185234 c 0.55369,-0.101879 5.42557,-0.143042 10.82638,-0.09147 7.54312,0.07202 9.91294,0.187108 10.22196,0.496424 0.3249,0.32521 0.40228,6.839441 0.40228,33.865801 0,32.76735 -0.0124,33.47229 -0.60127,33.90283 -0.49109,0.3591 -2.51095,0.43967 -11.02218,0.43967 -5.73148,0 -10.5138,-0.0929 -10.62736,-0.2065 z m -408.686552,0.94424 c 0.226689,-0.22669 -1.898792,-4.54002 -3.378147,-6.85542 l -1.039024,-1.62622 h -3.068777 c -5.30705,0 -8.79222,-1.58502 -12.77786,-5.81124 -7.18709,-7.62092 -7.41903,-19.63741 -0.52425,-27.16183 4.54033,-4.95498 11.55751,-6.15433 17.911973,-3.06146 2.889535,1.4064 6.50473,4.89471 8.132164,7.84673 1.923573,3.48918 2.554431,6.09024 2.554357,10.5317 -7.4e-5,4.24476 -0.341119,5.70879 -2.12865,9.13781 -1.149682,2.20543 -4.768268,5.99474 -6.621895,6.93432 -0.724055,0.36701 -1.316464,0.7996 -1.316464,0.96131 0,0.16172 1.010579,0.97368 2.245732,1.80437 3.883685,2.61194 3.135531,2.80209 7.065788,-1.79582 3.131956,-3.66401 4.007993,-4.49216 4.007993,-3.78894 0,0.13382 -0.287252,1.81593 -0.638339,3.73804 -0.351084,1.92211 -0.590361,3.63867 -0.531724,3.81458 0.193631,0.58089 6.032962,-4.34279 6.791235,-5.72632 0.256921,-0.46877 -0.09796,-0.98874 -2.114138,-3.09756 -3.937161,-4.11809 -5.675327,-8.35692 -5.675327,-13.84032 0,-8.64863 5.088838,-16.27063 12.704105,-19.02805 1.019104,-0.36901 1.97158,-0.80368 2.116614,-0.96595 0.147211,-0.1647 -0.06632,-2.39587 -0.4834,-5.05091 -0.4109,-2.61574 -0.669466,-4.83351 -0.574591,-4.92839 0.310633,-0.31063 1.234236,0.77818 2.809225,3.31171 0.851829,1.37025 1.653323,2.49345 1.781097,2.49599 0.380483,0.008 0.265068,-3.43056 -0.246265,-7.33622 -1.911074,-14.597111 -8.440411,-29.751259 -19.525644,-45.317695 -2.418269,-3.395857 -4.15812,-5.396209 -4.155571,-4.777775 6.48e-4,0.157471 0.472434,2.30747 1.04841,4.777775 1.530487,6.564086 1.80314,8.007767 1.580416,8.368143 -0.11626,0.188111 -0.918854,-0.333709 -1.918561,-1.247385 -0.945277,-0.86393 -1.849907,-1.527043 -2.010283,-1.473584 -0.160379,0.05346 -1.445874,2.108178 -2.856655,4.566039 -1.410781,2.457862 -2.725618,4.522361 -2.921855,4.587773 -0.574926,0.191643 -0.419125,-1.334682 0.576144,-5.644191 0.509074,-2.204311 0.925594,-4.197548 0.925594,-4.429416 0,-0.639268 -0.589302,-0.209114 -3.897315,2.844805 -12.55317,11.588953 -21.45912,26.808215 -24.75211,42.298551 -0.4527,2.12957 -0.95569,4.19976 -1.11773,4.60042 -0.36585,0.90457 -0.68568,0.67825 -2.65112,-1.876 -0.75974,-0.98733 -1.50735,-1.79516 -1.66135,-1.79516 -0.28448,0 -0.25818,0.63693 0.33262,8.05366 0.68509,8.60047 3.20829,18.21216 6.62183,25.22468 3.83025,7.86857 9.29448,14.30973 13.96054,16.45647 2.83916,1.30623 8.30066,3.05013 11.952937,3.81665 3.502177,0.73503 3.233532,0.69907 3.468271,0.46433 z m 4.692471,-51.35413 c -0.102932,-0.41011 -0.03171,-2.04795 0.158273,-3.63963 0.611431,-5.12266 2.348212,-10.304448 3.388023,-10.108382 0.317035,0.05978 1.208721,1.742895 2.428367,4.583702 1.06005,2.46908 1.931239,4.59378 1.935976,4.72156 0.01781,0.48087 -0.55544,0.1913 -2.29428,-1.15894 -0.985412,-0.76519 -1.918466,-1.31289 -2.073446,-1.21711 -0.495811,0.30643 -1.737366,3.01853 -2.438403,5.32654 -0.373863,1.23086 -0.733211,2.23792 -0.798554,2.23792 -0.06534,0 -0.203024,-0.33554 -0.305956,-0.74566 z M -114.3037,102.8091 c 0,-2.54791 5.82781,-12.921653 7.25919,-12.921653 0.23952,0 0.51312,0.383323 0.60799,0.851829 0.2689,1.327881 1.11575,8.172549 1.11575,9.018068 0,0.736756 -0.0171,0.742326 -0.61597,0.200379 -0.33879,-0.306597 -1.0489,-1.232099 -1.57803,-2.056672 -1.22293,-1.905781 -1.40512,-1.815998 -4.13789,2.039238 -2.19526,3.096941 -2.65104,3.590161 -2.65104,2.868811 z m 23.31761,-18.261508 c 0.162854,-1.06491 2.097492,-8.681109 2.249625,-8.856236 0.614993,-0.707935 5.681473,5.977902 6.47386,8.543042 0.325584,1.053995 -0.10962,0.859195 -2.249096,-1.006707 -1.074392,-0.937013 -2.131865,-1.703659 -2.34994,-1.703659 -0.218074,0 -1.059707,0.826869 -1.870292,1.837486 -1.825541,2.276032 -2.472935,2.616674 -2.254157,1.186074 z m -6.799193,65.317418 c 1.893331,-0.92632 4.76544,-3.77365 5.746747,-5.69717 1.492786,-2.9261 1.995396,-7.34538 1.248398,-10.97673 -0.559377,-2.71927 -2.509332,-6.39492 -4.438279,-8.36611 -2.129549,-2.17618 -3.777336,-3.16582 -6.382383,-3.8332 -8.00104,-2.04978 -15.16179,4.47267 -15.16179,13.81028 0,6.94453 4.57055,13.6975 10.61115,15.67795 2.11365,0.69297 6.336459,0.38291 8.376157,-0.61502 z m -5.989857,-13.90134 c -1.80477,-1.22832 -2.3207,-2.21429 -2.3143,-4.42275 0.004,-1.49918 0.1581,-2.17868 0.63865,-2.82233 0.94627,-1.26742 2.01818,-1.94838 3.21372,-2.0416 l 1.07028,-0.0834 0.0139,1.96272 c 0.0125,1.76879 0.10175,2.03833 0.9034,2.72795 0.798538,0.68694 1.063392,0.7435 2.589018,0.55288 1.68402,-0.2104 1.697411,-0.20563 1.471831,0.5245 -1.146578,3.71109 -4.845679,5.46744 -7.586469,3.60208 z m 38.521503,12.76815 c 1.998956,-0.74791 5.233652,-3.58156 6.7039,-5.87275 1.596521,-2.48796 2.480825,-5.7286 2.476513,-9.0755 -0.0064,-4.9895 -1.368816,-8.40797 -4.529074,-11.36424 -2.906572,-2.71896 -6.150574,-3.74992 -9.754654,-3.10009 -5.199269,0.93746 -9.526063,5.26505 -11.27332,11.2754 -0.39305,1.35204 -0.495935,2.6655 -0.413128,5.27408 0.106612,3.3584 0.153478,3.56085 1.412485,6.10163 1.507388,3.04204 3.692952,5.42017 6.069798,6.6046 1.364163,0.6798 1.984273,0.78567 4.601743,0.78567 2.28158,0 3.4382,-0.15456 4.705737,-0.6288 z m -9.094671,-14.00718 c -1.179961,-0.80307 -2.087902,-1.97231 -2.224945,-2.86524 -0.07788,-0.50747 0.101009,-0.63464 0.98907,-0.70313 1.967608,-0.15176 2.490693,-0.38686 3.106012,-1.39604 0.733164,-1.20245 0.770196,-2.11533 0.135595,-3.34251 -0.603987,-1.16798 -0.155206,-1.41178 1.686093,-0.91597 3.536287,0.95222 5.019833,4.5753 3.13721,7.66162 -1.29378,2.12098 -4.821599,2.92752 -6.829035,1.56127 z"
         id="path3748"
         inkscape:connector-curvature="0" />
      <path
         style="fill:#000000;stroke-width:0.3097561"
         d="m -99.818485,199.93774 -53.196495,-0.0886 -2.27963,-2.27962 -2.27962,-2.27962 -0.22624,-50.79783 c -0.12443,-27.93881 -0.12438,-58.098464 1.1e-4,-67.021456 l 0.22636,-16.223628 0.98344,-1.399866 c 0.54089,-0.769927 1.65824,-1.818038 2.48299,-2.329135 l 1.49954,-0.929268 28.0052,-0.154878 c 26.488781,-0.146492 28.02724,-0.18501 28.412091,-0.711348 0.223783,-0.306058 0.359741,-0.793924 0.302123,-1.084146 -0.05761,-0.290223 -0.626664,-2.929158 -1.264554,-5.864302 -0.637887,-2.935143 -1.068383,-5.428039 -0.956654,-5.539768 0.448688,-0.448688 10.444998,6.275197 16.14491,10.859659 l 2.909226,2.339905 218.177838,0.02993 c 119.99782,0.01646 220.9181,0.121007 224.26731,0.232317 l 6.08949,0.202384 1.18977,0.959237 c 0.6544,0.52758 1.60798,1.782093 2.11908,2.787805 l 0.92927,1.828567 v 65.513421 65.51341 l -0.9924,2.01342 c -0.7415,1.50442 -1.4071,2.32664 -2.63293,3.25243 l -1.64053,1.23903 -207.5366,0.0103 c -114.145126,0.006 -231.475019,-0.0296 -260.733095,-0.0783 z m 67.634046,-13.88851 c 1.450548,-0.75011 3.350629,-2.60161 4.092814,-3.98818 l 0.674519,-1.26015 v -52.50366 c 0,-42.729643 -0.07621,-52.718849 -0.409362,-53.659622 -0.508523,-1.435977 -2.593272,-3.614039 -4.23698,-4.426627 -1.184576,-0.585611 -1.922347,-0.612529 -16.788742,-0.612529 -11.015503,0 -15.650362,0.100634 -15.894871,0.345114 -0.3602,0.360161 -0.363202,0.355463 5.709319,8.939983 2.689015,3.801371 3.366498,4.367688 3.899957,3.260025 0.123072,-0.255548 0.544455,-1.479122 0.936399,-2.719054 0.391946,-1.239932 0.85068,-2.208406 1.019404,-2.152164 0.648223,0.216074 5.696288,14.343863 7.163894,20.049267 2.348211,9.128787 2.493663,10.434187 2.493663,22.379907 0,8.93125 0.07259,10.76405 0.42629,10.76402 0.234461,-1e-5 1.672621,-0.29263 3.195912,-0.65025 1.523287,-0.35763 2.854731,-0.56512 2.958759,-0.46109 0.421107,0.42111 -6.681867,13.40242 -9.666184,17.66581 -7.862323,11.23209 -16.846486,18.56099 -28.060379,22.89043 -5.210696,2.01174 -6.429791,2.21775 -12.994644,2.1959 -5.335584,-0.0178 -5.922605,-0.0777 -8.518294,-0.86937 -5.978655,-1.82352 -11.678385,-4.71926 -16.895355,-8.58366 -12.36893,-9.16212 -19.76147,-23.83636 -21.83318,-43.33901 -0.57797,-5.44095 -0.86423,-16.50229 -0.54911,-21.218297 l 0.24837,-3.717073 2.24654,3.252439 c 3.15206,4.563421 3.41632,4.853971 3.92115,4.311181 0.22468,-0.24158 1.20918,-2.599779 2.18778,-5.240449 2.97845,-8.037084 6.5186,-14.466369 12.35217,-22.432865 1.48718,-2.030942 2.66162,-3.91271 2.60985,-4.181708 -0.0833,-0.433065 -1.38864,-0.49892 -11.39604,-0.574946 -6.21606,-0.04722 -12.40246,0.04514 -13.74755,0.205261 -2.96183,0.352571 -4.42945,1.251033 -6.14614,3.762599 l -1.1576,1.69361 0.0735,52.991018 0.0735,52.99101 0.84173,1.27185 c 1.09069,1.64801 2.26519,2.7249 3.80461,3.48842 1.221,0.60559 2.00425,0.61453 53.835507,0.61477 46.996477,2.2e-4 52.695757,-0.0511 53.528874,-0.48191 z M 38.05663,174.41832 c 0.540115,-0.18829 1.118476,-0.59729 1.285246,-0.9089 0.166769,-0.31162 0.303217,-2.66659 0.303217,-5.23328 0,-4.2537 -0.05483,-4.72153 -0.619512,-5.28622 -0.340732,-0.34073 -1.002836,-0.6371 -1.471342,-0.65859 -0.468506,-0.0215 -6.455574,-0.12604 -13.304592,-0.23232 -9.597638,-0.14893 -12.544962,-0.28556 -12.854879,-0.59594 -0.324609,-0.32508 -0.402116,-6.75624 -0.402116,-33.36517 0,-31.222518 0.02918,-32.991669 0.552763,-33.515587 0.507346,-0.507675 1.614433,-0.566847 13.474391,-0.72022 7.106896,-0.09191 13.169433,-0.282544 13.472307,-0.423638 0.988066,-0.460295 1.15298,-1.316987 1.15298,-5.98945 0,-3.433826 -0.109146,-4.756766 -0.428473,-5.193476 -0.678704,-0.928181 -3.699061,-1.069857 -18.621528,-0.873475 L 6.9658226,81.601421 5.1930264,82.530748 c -2.2241419,1.165925 -4.5413809,3.592254 -5.7865912,6.059 l -0.9589058,1.899585 v 37.678277 37.67828 l 0.97974619,1.83819 c 0.53886103,1.01101 1.50470539,2.43458 2.14632181,3.16349 1.5004215,1.70457 4.5300098,3.32165 6.7618522,3.60922 2.9520784,0.38037 28.6149824,0.34715 29.7211804,-0.0385 z m 46.271917,-0.47187 c 2.220988,-1.12546 5.208496,-4.08213 6.298667,-6.23364 l 0.902029,-1.7802 0.08572,-37.88624 0.08572,-37.88623 -0.982791,-1.843904 C 89.443398,85.925053 87.307202,83.777622 84.956856,82.5249 L 83.079111,81.524072 H 68.237556 53.396 l -1.621372,0.807965 c -2.325692,1.15894 -4.733696,3.491025 -5.938285,5.751068 l -1.036834,1.945299 -0.128927,34.854546 c -0.08105,21.91125 -0.01344,36.14917 0.182063,38.34083 0.355457,3.98476 0.910574,5.2395 3.557598,8.04127 1.752257,1.8547 3.58754,2.84689 5.887944,3.18312 0.885007,0.12936 7.642365,0.25259 15.016351,0.27384 l 13.407251,0.0386 z M 58.17936,161.85221 c -0.405319,-0.10735 -0.559677,-0.67994 -0.720973,-2.67444 -0.112878,-1.39581 -0.159577,-16.43512 -0.103775,-33.42067 0.08154,-24.82108 0.180498,-30.961838 0.504141,-31.285366 0.313742,-0.313631 2.617092,-0.40254 10.428457,-0.40254 5.514173,0 10.141929,0.116158 10.283903,0.258129 0.14197,0.141974 0.258129,15.305747 0.258129,33.697277 0,29.38664 -0.05631,33.47474 -0.464634,33.73285 -0.454066,0.28704 -19.128224,0.3747 -20.185248,0.0948 z m 78.37504,12.56774 c 1.29002,-0.44971 1.41969,-1.04101 1.40524,-6.4079 -0.0101,-3.75324 -0.0925,-4.50603 -0.5421,-4.95609 -0.72184,-0.72251 -4.1587,-0.92471 -16.46147,-0.96849 -5.4517,-0.0194 -10.21293,-0.11595 -10.58051,-0.21456 -0.36757,-0.0986 -0.74661,-0.4787 -0.8423,-0.84465 -0.64744,-2.47579 -0.52147,-65.461826 0.13303,-66.520832 0.20148,-0.326003 2.98675,-0.445095 13.54568,-0.579189 14.60355,-0.185457 14.05403,-0.105078 14.61878,-2.138305 0.39136,-1.408956 0.41537,-7.797951 0.0331,-8.80342 -0.60106,-1.580911 -1.11249,-1.625259 -17.52728,-1.51988 l -15.17805,0.09744 -1.85853,1.042407 c -2.30021,1.290125 -4.48194,3.513461 -5.55028,5.656109 l -0.811505,1.627545 -0.196206,37.711485 -0.196206,37.71148 1.103206,2.16829 c 0.606763,1.19256 1.593147,2.73563 2.191964,3.42905 1.242697,1.43901 4.215807,3.13771 6.163837,3.52173 2.06043,0.40617 29.38074,0.39525 30.54961,-0.0122 z m 46.13365,-0.6053 c 2.79056,-1.39446 4.80426,-3.35382 6.09176,-5.9274 l 1.097,-2.19275 V 127.87288 90.051258 l -0.85183,-1.692446 c -1.12497,-2.235141 -3.49526,-4.593354 -5.8774,-5.847516 l -1.92799,-1.015059 -14.95372,0.09136 -14.9537,0.09136 -1.5,0.738459 c -1.93618,0.953187 -4.49054,3.457135 -5.72756,5.614502 l -0.97516,1.700698 -0.003,38.187734 -0.003,38.18774 0.81039,1.59921 c 1.06027,2.09234 3.74563,4.88242 5.60709,5.82573 0.81472,0.41288 2.24795,0.8375 3.18496,0.94362 0.93702,0.10611 7.64032,0.21343 14.89627,0.23848 l 13.19261,0.0455 1.8931,-0.94601 z m -26.43802,-12.19367 c -0.58873,-0.43051 -0.60127,-1.1338 -0.60127,-33.73762 0,-18.31387 0.11613,-33.414088 0.25803,-33.556053 0.14193,-0.141961 4.83919,-0.258113 10.43841,-0.258113 7.93858,0 10.26912,0.08865 10.58343,0.402581 0.61456,0.613849 0.59294,66.334985 -0.022,67.076395 -0.37917,0.45709 -1.48615,0.51249 -10.2402,0.51249 -7.98799,0 -9.927,-0.0819 -10.41635,-0.43968 z m 78.56939,12.1497 c 2.60545,-1.29912 5.01538,-3.73088 6.19453,-6.25062 l 0.931,-1.9895 -0.092,-20.39776 -0.092,-20.39775 -0.87187,-1.70366 c -1.08176,-2.11382 -3.24113,-4.36451 -5.47813,-5.70986 l -1.70366,-1.02458 -12.23537,-0.20128 c -6.72945,-0.1107 -12.54555,-0.2835 -12.92469,-0.38399 -0.46721,-0.12383 -0.74841,-0.49776 -0.87274,-1.16053 -0.27472,-1.46434 -0.0269,-19.926337 0.27131,-20.224282 0.1419,-0.14172 7.3902,-0.327369 16.10732,-0.412552 16.58713,-0.162089 16.8218,-0.182626 17.54586,-1.535517 0.17427,-0.325625 0.31685,-2.544903 0.31685,-4.931723 0,-4.141829 -0.0341,-4.3793 -0.74806,-5.208781 l -0.74806,-0.869101 -18.37938,0.0928 -18.37938,0.0928 -1.64032,0.748346 c -2.14555,0.978838 -4.9709,3.835112 -6.12341,6.190441 l -0.90944,1.858537 v 14.868292 14.8683 l 0.90913,1.54878 c 1.28905,2.19601 3.61228,4.55011 5.51496,5.58822 l 1.62957,0.88911 11.30609,0.25399 c 6.21836,0.13969 12.07275,0.35497 13.00976,0.4784 l 1.70366,0.22442 0.24709,2.78781 c 0.13592,1.53329 0.20562,8.73983 0.15488,16.01453 -0.072,10.33316 -0.18022,13.31478 -0.49443,13.62926 -0.31506,0.31532 -3.80523,0.43693 -16.10732,0.5612 -14.00696,0.14149 -15.80989,0.21561 -16.67427,0.68549 -0.53306,0.28977 -1.05577,0.75249 -1.16158,1.02827 -0.10585,0.27579 -0.19242,2.43079 -0.19242,4.78891 0,4.16066 0.0239,4.31568 0.80193,5.24052 l 0.80192,0.95304 h 18.19861 18.1986 z m 61.06303,0.12919 c 0.6735,-0.67404 0.70534,-0.92358 0.70534,-5.52572 0,-6.18555 0.35139,-5.83147 -6.06264,-6.10909 -2.59733,-0.11242 -9.76137,-0.2044 -15.9201,-0.2044 -9.17993,0 -11.30597,-0.0792 -11.79892,-0.43951 -0.57909,-0.4233 -0.60443,-1.00448 -0.68707,-15.7554 -0.0512,-9.13623 0.0328,-15.62778 0.2081,-16.08888 0.19,-0.49977 0.61474,-0.83715 1.20163,-0.95454 0.49927,-0.0999 6.26002,-0.27598 12.80166,-0.39139 l 11.89393,-0.20984 1.52375,-0.81376 c 1.99198,-1.06382 4.78666,-3.88416 5.73281,-5.78543 0.96969,-1.9486 1.21871,-6.02969 1.24355,-20.38303 l 0.0183,-10.486409 -1.15275,-2.213591 c -1.38167,-2.653123 -3.68353,-5.011191 -5.98731,-6.133431 l -1.68799,-0.822282 -14.24878,-0.132718 c -7.83683,-0.073 -16.18581,-0.05144 -18.5533,0.04789 -4.27495,0.179367 -4.30902,0.186622 -4.9561,1.055695 -0.58882,0.790813 -0.65157,1.288533 -0.65157,5.168293 v 4.293204 l 0.88475,0.923271 0.88476,0.923275 16.04877,0.103557 c 8.82684,0.05696 16.16487,0.219546 16.30671,0.361306 0.37366,0.373383 0.48499,20.39068 0.11659,20.96055 -0.35445,0.54828 -6.48112,0.8482 -18.34998,0.89829 l -7.34011,0.031 -1.83741,1.07688 c -2.27069,1.33081 -4.68469,3.92687 -5.84011,6.28056 l -0.87407,1.78037 -0.0963,16.88171 c -0.13499,23.67466 0.0805,25.33813 3.74501,28.90302 1.994,1.93979 4.06345,3.01574 6.38953,3.32202 0.95287,0.12547 9.3603,0.2093 18.68322,0.18629 l 16.95075,-0.0418 z m 45.31022,-0.0231 c 4.31134,-2.04926 6.85732,-5.6569 7.30647,-10.35323 0.31304,-3.27332 0.32382,-66.27038 0.0121,-70.432331 -0.39695,-5.299146 -2.38903,-8.340471 -6.92599,-10.57402 l -1.95199,-0.960956 -18.33664,-0.09352 c -16.80197,-0.08569 -18.37996,-0.05017 -18.85463,0.424471 -0.9416,0.941575 -1.091,8.507272 -0.99311,50.295796 0.0886,37.84693 0.13127,40.64707 0.63035,41.40865 0.30434,0.46434 0.90582,0.87278 1.3939,0.94651 0.47226,0.0713 8.73417,0.15047 18.35984,0.17586 l 17.50122,0.0462 1.85853,-0.88339 z m -26.89714,-12.02262 c -0.11359,-0.11359 -0.20652,-15.45341 -0.20652,-34.0885 V 93.8837 l 10.51663,0.09275 c 8.11691,0.07158 10.60843,0.184636 10.9189,0.495448 0.32487,0.325213 0.40228,6.809222 0.40228,33.697282 0,29.25815 -0.0564,33.33019 -0.46463,33.58829 -0.52408,0.33127 -20.83928,0.42406 -21.16666,0.0967 z m -396.151506,5.31478 c 12.951631,-2.10054 23.732622,-10.05593 33.368515,-24.62293 1.070604,-1.61847 2.375981,-3.77902 2.900838,-4.80122 l 0.954284,-1.85853 -0.703304,-0.0923 c -0.386817,-0.0508 -1.322355,0.0468 -2.078971,0.2168 -0.756617,0.17001 -1.460525,0.21154 -1.564244,0.0923 -0.103722,-0.11924 0.133279,-1.88949 0.526666,-3.93388 2.016577,-10.47995 1.576528,-22.09881 -1.26115,-33.298777 -1.217646,-4.805893 -2.673382,-9.023136 -3.069129,-8.89122 -0.189274,0.06309 -0.597331,0.800066 -0.906793,1.637721 -0.309458,0.837658 -0.678681,1.641273 -0.820491,1.785812 -0.141809,0.144541 -0.843295,-0.761495 -1.558863,-2.013415 C -62.979435,79.298493 -68.13238,72.504417 -76.707473,64.17732 -83.311204,57.76457 -91.512031,51.195008 -92.135319,51.818297 c -0.160984,0.160984 0.432515,3.172576 1.869464,9.48624 0.473989,2.082609 0.768146,3.880215 0.653682,3.99468 -0.114467,0.114466 -0.858907,-0.391755 -1.654315,-1.124935 -1.697225,-1.56445 -1.307691,-1.846219 -4.237048,3.064874 -1.05515,1.768967 -1.960936,3.002062 -2.012857,2.74021 -0.05192,-0.261852 0.253956,-2.262883 0.679728,-4.446737 0.425776,-2.183853 0.716541,-4.028237 0.646146,-4.098631 -0.41372,-0.413721 -5.849571,4.467031 -9.859621,8.852768 -6.13017,6.70449 -10.54162,13.169955 -14.32485,20.994623 -2.65987,5.501296 -4.04388,9.376271 -5.55598,15.555741 -0.61262,2.50362 -1.22048,4.74254 -1.35078,4.97539 -0.24346,0.43503 -0.85257,-0.15818 -2.91015,-2.83416 -0.47577,-0.61876 -0.99849,-1.12502 -1.16159,-1.12502 -0.65535,0 -0.13636,10.07763 0.81357,15.79756 2.13856,12.8773 7.54157,24.39948 14.90013,31.77531 3.87382,3.88291 10.90827,8.23913 16.66902,10.32263 4.979454,1.80093 11.454193,2.33817 17.114794,1.42011 z m -25.654764,-13.87246 c -4.34715,-1.57955 -8.11829,-5.03804 -10.20243,-9.35657 -5.47566,-11.34608 0.11438,-24.8474 10.84482,-26.19288 5.4129,-0.67872 9.983583,0.87563 13.605438,4.62681 5.990129,6.20402 7.601142,15.53361 3.961372,22.94087 -1.3911,2.83101 -4.320962,5.85002 -7.088778,7.30447 -2.100196,1.10363 -2.394301,1.17079 -5.650422,1.2905 -3.03715,0.11164 -3.67057,0.0406 -5.47,-0.6132 z m 9.493524,-3.13272 c 7.095679,-3.2485 9.878534,-12.93517 6.060239,-21.09468 -1.244542,-2.65953 -4.515176,-6.07149 -6.97222,-7.27351 -4.736873,-2.31733 -10.475913,-1.5108 -13.946713,1.96001 -2.46762,2.46762 -4.20743,6.90927 -4.20564,10.73677 0.003,7.2766 4.97763,14.57896 11.11938,16.32375 2.10304,0.59745 5.89516,0.28609 7.944954,-0.65234 z m -5.769654,-14.51087 c -2.99252,-2.01666 -2.99252,-6.18978 0,-8.20643 0.56967,-0.38391 1.36363,-0.69801 1.76435,-0.69801 0.68815,0 0.72858,0.10873 0.72858,1.95942 0,1.70598 0.10341,2.05655 0.79949,2.71037 0.649298,0.60988 1.083737,0.73876 2.312663,0.68609 0.83225,-0.0357 1.58155,0.0458 1.665107,0.18097 0.304264,0.4923 -1.143852,2.82775 -2.13208,3.4385 -1.42219,0.87896 -3.77682,0.84646 -5.13811,-0.0709 z m 31.074034,17.09833 c -2.33094,-0.46005 -4.109321,-1.47322 -6.345887,-3.61533 -2.629786,-2.51873 -4.290826,-4.97379 -5.256955,-7.76991 -0.614414,-1.77821 -0.71414,-2.66604 -0.702499,-6.25411 0.01217,-3.7524 0.101969,-4.43581 0.87464,-6.65679 2.703787,-7.77183 8.802398,-12.54809 16.022126,-12.54809 8.817808,0 15.499455,7.59494 15.53294,17.6561 0.03974,11.9422 -9.71454,21.24269 -20.124365,19.18813 z m 8.364967,-4.11725 c 3.356381,-1.64213 7.032585,-6.4413 8.113782,-10.59229 0.975806,-3.74637 0.400159,-9.1736 -1.305383,-12.30724 -1.222806,-2.2467 -3.843126,-4.7144 -6.200738,-5.83958 -1.946517,-0.92899 -2.151027,-0.96177 -5.164849,-0.82773 -2.820094,0.12543 -3.334159,0.24408 -5.073164,1.17096 -2.396599,1.27737 -5.217696,4.22767 -6.50407,6.80193 -1.551383,3.10459 -2.072148,6.08799 -1.714367,9.8214 0.243378,2.53962 0.495294,3.53762 1.311455,5.19548 1.362056,2.76672 3.927181,5.48127 6.328165,6.6968 1.856521,0.93989 2.016897,0.9659 5.205399,0.84428 2.792551,-0.10651 3.548947,-0.25224 5.00377,-0.96401 z m -8.884116,-13.52522 c -1.367706,-0.42381 -2.97171,-2.12686 -2.97171,-3.15521 0,-0.80909 0.08615,-0.8685 1.259388,-0.8685 0.692664,0 1.509887,-0.13407 1.816054,-0.29792 0.894033,-0.47847 1.366445,-2.01963 1.158159,-3.77827 l -0.186798,-1.57724 1.144335,0.1857 c 1.376903,0.22344 2.457651,0.97874 3.432184,2.39865 0.595218,0.86723 0.701059,1.34822 0.592963,2.69473 -0.145427,1.81158 -0.860753,3.01544 -2.279151,3.8357 -1.168196,0.67557 -2.836542,0.91217 -3.965424,0.56236 z"
         id="path3746"
         inkscape:connector-curvature="0" />
    </g>
  </g>
</svg>
