<?xml version="1.0" encoding="UTF-8" standalone="no"?>
<!-- Created with Inkscape (http://www.inkscape.org/) -->

<svg
   xmlns:dc="http://purl.org/dc/elements/1.1/"
   xmlns:cc="http://creativecommons.org/ns#"
   xmlns:rdf="http://www.w3.org/1999/02/22-rdf-syntax-ns#"
   xmlns:svg="http://www.w3.org/2000/svg"
   xmlns="http://www.w3.org/2000/svg"
   xmlns:sodipodi="http://sodipodi.sourceforge.net/DTD/sodipodi-0.dtd"
   xmlns:inkscape="http://www.inkscape.org/namespaces/inkscape"
   version="1.1"
   id="svg10"
   width="2886.3469"
   height="888.31018"
   viewBox="0 0 2886.3469 888.3102"
   sodipodi:docname="impact.svg"
   inkscape:version="0.92.4 (5da689c313, 2019-01-14)">
  <metadata
     id="metadata16">
    <rdf:RDF>
      <cc:Work
         rdf:about="">
        <dc:format>image/svg+xml</dc:format>
        <dc:type
           rdf:resource="http://purl.org/dc/dcmitype/StillImage" />
        <dc:title />
      </cc:Work>
    </rdf:RDF>
  </metadata>
  <defs
     id="defs14" />
  <sodipodi:namedview
     pagecolor="#ffffff"
     bordercolor="#666666"
     borderopacity="1"
     objecttolerance="10"
     gridtolerance="10"
     guidetolerance="10"
     inkscape:pageopacity="0"
     inkscape:pageshadow="2"
     inkscape:window-width="1440"
     inkscape:window-height="837"
     id="namedview12"
     showgrid="false"
     inkscape:zoom="0.21828178"
     inkscape:cx="781.51214"
     inkscape:cy="762.65168"
     inkscape:window-x="-8"
     inkscape:window-y="-8"
     inkscape:window-maximized="1"
     inkscape:current-layer="g92"
     fit-margin-top="0"
     fit-margin-left="0"
     fit-margin-right="0"
     fit-margin-bottom="0" />
  <g
     id="g92"
     transform="translate(1337.6923,401.30024)">
    <path
       style="fill:#cccccc"
       d="m -709.80466,485.3938 c -13.92392,-1.95056 -34.17651,-7.06218 -47.04064,-11.87276 -21.12714,-7.90055 -46.67343,-22.63205 -65.17555,-37.58409 -10.77271,-8.70569 -28.37533,-26.52398 -37.46795,-37.927 -9.34748,-11.72264 -339.2805,-487.90937 -338.5567,-488.63316 0.2867,-0.28663 25.6436,7.5814 56.3489,17.48451 30.7052,9.90312 55.9422,17.89108 56.0822,17.75104 0.1401,-0.14004 -56.4599,-77.79001 -125.7778,-172.55549 -69.3179,-94.76548 -125.8464,-172.48692 -125.619,-172.71431 0.3192,-0.31925 706.12361,482.41634 734.6659,502.47547 57.35716,40.30983 99.53213,101.38865 112.33889,162.69194 14.34259,68.65502 -6.27583,130.25727 -58.06613,173.48582 -29.2211,24.3904 -62.20258,39.68574 -100.27276,46.50205 -13.56593,2.42892 -47.03363,2.91683 -61.45936,0.89598 z m 40.95936,-77.41869 c 44.24915,-6.29111 80.54908,-36.16507 94.48401,-77.75804 12.0172,-35.86896 5.76766,-76.25666 -16.37917,-105.8504 -42.55507,-56.86429 -124.86648,-63.1807 -174.65172,-13.40241 -10.23504,10.2336 -16.48173,18.8044 -22.37653,30.70176 -8.21132,16.57276 -11.77779,32.07339 -11.81349,51.34393 -0.0566,30.5318 10.74261,57.78799 31.59305,79.73808 25.47569,26.81928 63.4295,40.30476 99.14385,35.22708 z m 1712,45.06697 c -33.7815,-2.22753 -56.9787,-11.45939 -74.6131,-29.69395 -11.0164,-11.39135 -17.5583,-22.98848 -22.2971,-39.5272 -5.8221,-20.31955 -5.5898,-10.0566 -5.5898,-246.96555 0,-144.76844 0.3483,-220.22886 1.0426,-225.87166 6.2543,-50.83185 32.8404,-79.78307 82.3021,-89.6235 10.8526,-2.15911 110.9786,-3.20353 128.0719,-1.33592 20.3528,2.22374 37.4045,7.47987 50.9395,15.70199 6.9418,4.21689 19.1235,15.44453 24.074,22.18847 7.3154,9.96548 14.0451,26.13583 16.9797,40.79912 3.0917,15.44869 3.5885,30.19605 3.5894,106.54607 l 8e-4,76.75 h -62 -62 v -68.8185 c 0,-74.23075 -0.1231,-76.13016 -5.2456,-80.94249 -4.6082,-4.32917 -8.7952,-5.24039 -23.9723,-5.21705 -11.7608,0.0181 -15.0057,0.35059 -18.381,1.88347 -4.9019,2.22619 -7.9608,6.22087 -9.3379,12.19452 -0.6664,2.89077 -1.0227,69.93941 -1.0388,195.46855 -0.027,211.7651 -0.4522,198.2147 6.4076,204.23761 2.0721,1.81939 5.4225,3.42589 8.5384,4.09412 6.6683,1.43011 23.4806,1.41048 30.2304,-0.0353 7.2555,-1.55409 12.11,-6.40864 13.6641,-13.66416 0.791,-3.69294 1.1351,-28.62428 1.1351,-82.25 v -76.95077 h 62.0767 62.0767 l -0.4377,92.75 c -0.4219,89.4024 -0.5145,93.15746 -2.5652,104.03932 -9.2041,48.84157 -36.1115,74.85119 -85.6505,82.7926 -7.917,1.26915 -19.9984,1.66956 -58,1.92227 -26.4,0.17557 -53.4,-0.0369 -60,-0.47206 z m -1398.5,-317.03964 v -312.00752 l 62.75,0.25752 62.75,0.25751 0.2516,311.75 0.2516,311.75 h -63.0016 -63.0016 z m 170,0.008 v -312 h 89.941 c 49.4675,0 90.1442,0.3375 90.3926,0.75 0.2484,0.4125 8.4875,83.775 18.309,185.25 9.8216,101.475 18.0254,183.375 18.2307,182 0.2053,-1.375 8.5383,-84.625 18.5178,-185 l 18.1445,-182.5 90.7322,-0.25529 90.7322,-0.25529 V 136.00515 448.01044 H 187.6572 125.6597 L 125.4072,251.80509 125.1547,55.59925 102.8637,249.5546 c -12.26,106.67544 -22.5061,194.96785 -22.769,196.20535 l -0.4781,2.25 H 20.6547 -38.3072 l -0.4762,-2.25 c -0.2619,-1.2375 -10.5079,-90.38009 -22.769,-198.09464 l -22.2929,-195.84464 -0.2525,198.09464 -0.2525,198.09464 h -50.4975 -50.4975 v -312 z m 479,-0.0559 v -312.05585 l 102.25,0.41081 c 109.6183,0.44041 106.8572,0.31684 126.3079,5.65307 4.3482,1.1929 11.6686,3.93221 16.2675,6.08733 29.6106,13.87599 46.3679,38.82138 52.3709,77.9605 1.0102,6.58658 1.3037,32.47408 1.3037,115 0,116.5006 0.1471,113.19077 -5.9701,134.30021 -9.1482,31.5685 -30.6807,52.94982 -63.0299,62.58757 -16.0219,4.77339 -21.9611,5.31128 -64.25,5.81894 l -40.25,0.48318 V 340.10535 448.0104 h -62.5 -62.5 z m 161.3162,-13.39295 c 4.9831,-1.7772 7.552,-4.14907 9.8031,-9.05119 1.7336,-3.77529 1.8377,-8.52234 1.8532,-84.5 0.011,-52.35743 -0.3447,-81.80013 -1.0165,-84.21895 -2.8367,-10.21452 -9.1909,-12.7815 -31.6375,-12.7815 h -15.3185 v 96 96 l 16.25,-0.0439 c 11.0693,-0.0299 17.4667,-0.47781 20.0662,-1.40492 z m 131.8359,319.69836 c 0.4565,-3.1625 18.8399,-143 40.8519,-310.75 22.0121,-167.75 40.227,-305.5625 40.4776,-306.25 0.3596,-0.98662 18.3678,-1.25 85.468,-1.25 h 85.0123 l 0.4929,2.25 c 0.2711,1.2375 18.5295,139.725 40.5744,307.75 22.0448,168.025 40.3427,307.4125 40.662,309.75 l 0.5806,4.25 h -62.4503 -62.4504 l -1.1624,-11.25 c -0.6393,-6.1875 -2.8252,-26.6625 -4.8577,-45.5 l -3.6954,-34.25 h -38.6451 -38.6451 l -4.2102,43.25 c -2.3156,23.7875 -4.1978,44.2625 -4.1827,45.5 l 0.027,2.25 h -57.3389 -57.339 l 0.83,-5.75 z m 188.523,-197.5 c -0.3012,-1.7875 -6.5269,-60.7375 -13.835,-131 -7.3081,-70.2625 -13.5243,-127.74965 -13.8138,-127.74921 -0.2895,4.3e-4 -6.3249,57.48793 -13.4121,127.75 -7.0872,70.26206 -13.1086,129.21171 -13.3808,130.99921 l -0.4951,3.25 h 27.7421 27.7422 z m 572.3249,-52.75 v -256 h -37.5 -37.5 v -56 -56 h 138 138 v 56 56 h -37.5 -37.5 v 256 256 h -63 -63 z"
       id="path106"
       inkscape:connector-curvature="0" />
    <path
       style="fill:#f7c9a0"
       d="m -708.8453,485.45761 c -40.01841,-5.38752 -79.69812,-22.71304 -112.48524,-49.11491 -11.66559,-9.39373 -28.87799,-26.89606 -38.74855,-39.40123 -9.70517,-12.29562 -338.65671,-486.87433 -337.95831,-487.57275 0.262,-0.26197 25.594,7.63097 56.2934,17.53988 30.6995,9.90891 55.9592,17.87415 56.1328,17.70053 0.1737,-0.17361 -56.0856,-77.44195 -125.0204,-171.70742 -68.9349,-94.26547 -125.7412,-172.06676 -126.2363,-172.89176 -0.6557,-1.09279 -0.096,-0.98165 2.0613,0.40941 12.8493,8.28499 731.46144,500.79151 739.9613,507.13833 43.08095,32.16836 78.39066,78.32748 95.44252,124.7686 9.67453,26.34878 13.4426,46.78026 13.49688,73.18366 0.0514,25.01913 -3.13662,42.67575 -11.52757,63.8439 -24.28741,61.27075 -90.37637,108.80285 -162.12242,116.60069 -12.95398,1.40792 -36.93613,1.16614 -49.28941,-0.49693 z m 42.80348,-77.93713 c 56.08754,-8.45411 97.67686,-57.02128 97.69333,-114.08431 0.009,-31.76505 -11.74845,-60.2807 -33.98609,-82.42622 -33.58321,-33.4441 -84.86364,-43.0896 -128.11213,-24.09703 -27.47436,12.06535 -49.97657,35.16162 -60.94497,62.55389 -22.67,56.61563 2.01382,121.11275 56.47998,147.57835 21.99952,10.68976 44.62036,14.13046 68.86988,10.47532 z m 1702.19652,44.82997 c -49.5892,-5.94792 -78.0404,-27.99723 -89.9736,-69.72838 -5.7614,-20.14836 -5.5984,-12.32398 -5.2525,-252.13886 0.3165,-219.45495 0.3222,-219.99573 2.4249,-229.50877 5.3845,-24.3602 12.9006,-39.39584 26.498,-53.00827 13.5956,-13.61058 31.2902,-21.96887 56.3032,-26.59558 8.9707,-1.65932 15.8157,-1.85028 66.5,-1.85518 41.4518,-0.004 58.7639,0.34176 65,1.29823 29.6803,4.55222 51.7596,15.785 66.3027,33.73119 13.5353,16.70268 20.7744,38.49005 22.7089,68.34632 0.521,8.04034 0.9565,46.9063 0.9678,86.3688 l 0.021,71.75 h -61.9804 -61.9804 l -0.2696,-70.75 c -0.2651,-69.5809 -0.3042,-70.8159 -2.3613,-74.73786 -1.4669,-2.79661 -3.5499,-4.73828 -6.973,-6.5 -4.5317,-2.3323 -5.8854,-2.51183 -18.9082,-2.50776 -8.9809,0.003 -15.3582,0.47446 -17.7271,1.31106 -4.5816,1.61799 -9.351,6.90578 -10.7399,11.90723 -1.5528,5.59164 -1.4681,386.77147 0.087,392.94863 1.4943,5.9342 6.2471,10.687 12.1813,12.18125 5.8102,1.46301 27.9234,1.48194 33.1713,0.0284 5.5071,-1.52535 8.9168,-4.16422 11.1267,-8.61125 1.7707,-3.56328 1.9007,-8.15014 2.3733,-83.76969 l 0.5,-80 61.25,-0.25769 61.25,-0.25768 v 90.28392 c 0,56.56342 -0.3894,93.44882 -1.0426,98.75768 -6.5595,53.31301 -36.111,83.50434 -88.5676,90.48547 -8.4964,1.13073 -22.868,1.42062 -65.3898,1.31895 -29.975,-0.0717 -55.85,-0.29224 -57.5,-0.49015 z m -1391.5,-315.8405 v -311.5 h 62.5 62.5 v 311.5 311.5 h -62.5 -62.5 z m 170,-0.005 v -311.50531 l 90.2469,0.25531 90.247,0.25532 17.9936,185.67608 C 23.0387,113.3082 31.225,196.77326 31.334,196.66427 31.443,196.55528 39.6599,114.35105 49.5938,13.98819 59.5276,-86.37467 67.9006,-169.95223 68.2003,-171.73973 l 0.545,-3.25 H 159.2 249.6547 v 311.5 311.5 h -61.5 -61.5 l -0.079,-200.75 c -0.043,-110.4125 -0.2598,-200.3 -0.4808,-199.75 -0.221,0.55 -10.5414,88.975 -22.9341,196.5 -12.3928,107.525 -22.8025,197.4125 -23.1328,199.75 l -0.6005,4.25 H 20.6546 -38.1183 l -0.6076,-4.25 c -0.3341,-2.3375 -10.7412,-93.125 -23.1268,-201.75 -12.3855,-108.625 -22.7027,-197.95 -22.927,-198.5 -0.2243,-0.55 -0.4433,90.2375 -0.4868,201.75 l -0.0788,202.74968 h -50 -50 V 136.50463 Z m 479,0.005 v -311.5 l 100.25,0.006 c 107.2001,0.006 109.6679,0.1047 127.7131,5.09238 10.8358,2.99501 25.3958,10.13601 33.8203,16.58732 17.7392,13.58415 29.0037,34.07718 34.3687,62.52508 2.0558,10.90092 2.1441,14.55775 2.5648,106.28932 0.4731,103.15004 -0.049,120.62803 -4.1441,138.64128 -9.7093,42.71263 -35.4081,66.78464 -80.0728,75.00404 -9.4045,1.73066 -16.693,2.10156 -50.25,2.55709 l -39.25,0.53281 v 107.88239 107.88239 h -62.5 -62.5 v -311.5 z m 164.04,-14.80274 c 2.9763,-1.57392 5.0833,-3.68095 6.6573,-6.65728 l 2.3027,-4.35455 V 28.41777 c 0,-55.85117 -0.3426,-83.18179 -1.0666,-85.09272 -1.5168,-4.00317 -4.8058,-7.28927 -9.4334,-9.42506 -3.3773,-1.5587 -6.6077,-1.84954 -20.75,-1.86808 l -16.75,-0.02196 v 96 96 h 17.3427 c 16.1754,0 17.6358,-0.155 21.6973,-2.30274 z M 586.876,444.25995 c 0.2665,-2.0625 18.6633,-142.23641 40.8817,-311.49758 l 40.397,-307.74757 85.2047,-0.002 85.2047,-0.002 0.5581,3.25 c 0.3069,1.7875 18.5484,140.5 40.5366,308.25 21.9882,167.75 40.2279,306.4625 40.5326,308.25 l 0.5539,3.25 h -62.0262 -62.0263 l -0.4694,-2.25 c -0.2581,-1.2375 -2.3036,-19.8 -4.5454,-41.25 -2.2418,-21.45 -4.3403,-40.9125 -4.6632,-43.25 l -0.5872,-4.25 h -38.8864 c -21.3876,0 -38.8859,0.3375 -38.8852,0.75 0,1.84338 -8.095,84.09745 -8.5653,87 l -0.5266,3.25 h -56.5864 -56.5863 l 0.4846,-3.75 z m 188.5642,-200.5 c -0.261,-2.3375 -6.502,-61.94493 -13.869,-132.46096 -7.367,-70.51603 -13.6687,-127.89103 -14.0038,-127.5 -0.4798,0.56 -27.0702,260.55315 -26.945,263.46096 0.018,0.4125 12.4658,0.75 27.6624,0.75 h 27.63 z m 572.8887,203.59084 c -0.3708,-0.3708 -0.6742,-115.57417 -0.6742,-256.00751 V -63.99005 h -37.5 -37.5 v -55.5 -55.5 h 138 138 v 55.5 55.5 h -37.4981 -37.498 l -0.252,255.75 -0.2519,255.75 -62.0758,0.25751 c -34.1417,0.14162 -62.3792,-0.0459 -62.75,-0.41667 z"
       id="path104"
       inkscape:connector-curvature="0" />
    <path
       style="fill:#9a9a99"
       d="m -700.75392,485.91399 c -43.37752,-3.57265 -87.43953,-22.28631 -123.59138,-52.49074 -10.67619,-8.91983 -28.63912,-27.4653 -36.73736,-37.92876 -6.97582,-9.01321 -337.38834,-485.69221 -336.95814,-486.12233 0.1523,-0.15238 25.3869,7.82771 56.0768,17.73353 30.6898,9.90582 56.1166,17.87416 56.5039,17.70742 0.3873,-0.16674 -54.7774,-76.12816 -122.5884,-168.80316 -67.8109,-92.675 -124.7216,-170.48229 -126.4682,-172.90509 l -3.1756,-4.4051 6.4235,4.35556 c 93.861,63.64384 736.22741,504.41614 742.9235,509.77152 45.37103,36.28673 80.14956,86.52019 93.96496,135.72122 6.60276,23.51452 7.53194,30.62957 7.50422,57.46189 -0.0279,26.97593 -1.18546,35.28893 -7.58916,54.5 -9.74534,29.23599 -30.7413,58.70924 -56.78432,79.71141 -42.50965,34.28157 -94.63311,50.21193 -149.50432,45.69263 z m 39.75154,-78.96433 c 24.19345,-4.90746 44.49341,-16.35857 61.85861,-34.89413 33.501,-35.75887 40.95408,-88.09943 18.7324,-131.55162 -31.88634,-62.35045 -111.17035,-82.72046 -169.03082,-43.42817 -8.15533,5.53818 -21.71319,18.56868 -27.99134,26.90254 -10.31989,13.69905 -18.46523,33.16288 -21.36753,51.05914 -6.84938,42.23484 10.86177,85.27969 45.97345,111.73305 12.77651,9.6259 33.46687,18.38713 49.98231,21.16476 10.08771,1.69658 31.05477,1.20273 41.84292,-0.98557 z m 1697.15708,45.40079 c -49.5892,-5.94792 -78.0404,-27.99723 -89.9736,-69.72838 -5.7614,-20.14836 -5.5984,-12.32398 -5.2525,-252.13886 0.3165,-219.45495 0.3222,-219.99573 2.4249,-229.50877 5.3845,-24.3602 12.9006,-39.39584 26.498,-53.00827 13.5956,-13.61058 31.2902,-21.96887 56.3032,-26.59558 8.9707,-1.65932 15.8157,-1.85028 66.5,-1.85518 41.4518,-0.004 58.7639,0.34176 65,1.29823 29.6803,4.55222 51.7596,15.785 66.3027,33.73119 13.5353,16.70268 20.7744,38.49005 22.7089,68.34632 0.521,8.04034 0.9565,46.9063 0.9678,86.3688 l 0.021,71.75 h -61.9804 -61.9804 l -0.2696,-70.75 c -0.2651,-69.5809 -0.3042,-70.8159 -2.3613,-74.73786 -1.4669,-2.79661 -3.5499,-4.73828 -6.973,-6.5 -4.5317,-2.3323 -5.8854,-2.51183 -18.9082,-2.50776 -8.9809,0.003 -15.3582,0.47446 -17.7271,1.31106 -4.5816,1.61799 -9.351,6.90578 -10.7399,11.90723 -1.5528,5.59164 -1.4681,386.77147 0.087,392.94863 1.4943,5.9342 6.2471,10.687 12.1813,12.18125 5.8102,1.46301 27.9234,1.48194 33.1713,0.0284 5.5071,-1.52535 8.9168,-4.16422 11.1267,-8.61125 1.7707,-3.56328 1.9007,-8.15014 2.3733,-83.76969 l 0.5,-80 61.25,-0.25769 61.25,-0.25768 v 90.28392 c 0,56.56342 -0.3894,93.44882 -1.0426,98.75768 -6.5595,53.31301 -36.111,83.50434 -88.5676,90.48547 -8.4964,1.13073 -22.868,1.42062 -65.3898,1.31895 -29.975,-0.0717 -55.85,-0.29224 -57.5,-0.49015 z m -1391.5,-315.8405 v -311.5 h 62.5 62.5 v 311.5 311.5 h -62.5 -62.5 z m 170,-0.005 v -311.50531 l 90.2469,0.25531 90.247,0.25532 17.9936,185.67608 C 23.0387,113.3082 31.225,196.77326 31.334,196.66427 31.443,196.55528 39.6599,114.35105 49.5938,13.98819 59.5276,-86.37467 67.9006,-169.95223 68.2003,-171.73973 l 0.545,-3.25 H 159.2 249.6547 v 311.5 311.5 h -61.5 -61.5 l -0.079,-200.75 c -0.043,-110.4125 -0.2598,-200.3 -0.4808,-199.75 -0.221,0.55 -10.5414,88.975 -22.9341,196.5 -12.3928,107.525 -22.8025,197.4125 -23.1328,199.75 l -0.6005,4.25 H 20.6546 -38.1183 l -0.6076,-4.25 c -0.3341,-2.3375 -10.7412,-93.125 -23.1268,-201.75 -12.3855,-108.625 -22.7027,-197.95 -22.927,-198.5 -0.2243,-0.55 -0.4433,90.2375 -0.4868,201.75 l -0.0788,202.74968 h -50 -50 V 136.50463 Z m 479,0.005 v -311.5 l 100.25,0.006 c 107.2001,0.006 109.6679,0.1047 127.7131,5.09238 10.8358,2.99501 25.3958,10.13601 33.8203,16.58732 17.7392,13.58415 29.0037,34.07718 34.3687,62.52508 2.0558,10.90092 2.1441,14.55775 2.5648,106.28932 0.4731,103.15004 -0.049,120.62803 -4.1441,138.64128 -9.7093,42.71263 -35.4081,66.78464 -80.0728,75.00404 -9.4045,1.73066 -16.693,2.10156 -50.25,2.55709 l -39.25,0.53281 v 107.88239 107.88239 h -62.5 -62.5 v -311.5 z m 164.04,-14.80274 c 2.9763,-1.57392 5.0833,-3.68095 6.6573,-6.65728 l 2.3027,-4.35455 V 28.41777 c 0,-55.85117 -0.3426,-83.18179 -1.0666,-85.09272 -1.5168,-4.00317 -4.8058,-7.28927 -9.4334,-9.42506 -3.3773,-1.5587 -6.6077,-1.84954 -20.75,-1.86808 l -16.75,-0.02196 v 96 96 h 17.3427 c 16.1754,0 17.6358,-0.155 21.6973,-2.30274 z M 586.876,444.25995 c 0.2665,-2.0625 18.6633,-142.23641 40.8817,-311.49758 l 40.397,-307.74757 85.2047,-0.002 85.2047,-0.002 0.5581,3.25 c 0.3069,1.7875 18.5484,140.5 40.5366,308.25 21.9882,167.75 40.2279,306.4625 40.5326,308.25 l 0.5539,3.25 h -62.0262 -62.0263 l -0.4694,-2.25 c -0.2581,-1.2375 -2.3036,-19.8 -4.5454,-41.25 -2.2418,-21.45 -4.3403,-40.9125 -4.6632,-43.25 l -0.5872,-4.25 h -38.8864 c -21.3876,0 -38.8859,0.3375 -38.8852,0.75 0,1.84338 -8.095,84.09745 -8.5653,87 l -0.5266,3.25 h -56.5864 -56.5863 l 0.4846,-3.75 z m 188.5642,-200.5 c -0.261,-2.3375 -6.502,-61.94493 -13.869,-132.46096 -7.367,-70.51603 -13.6687,-127.89103 -14.0038,-127.5 -0.4798,0.56 -27.0702,260.55315 -26.945,263.46096 0.018,0.4125 12.4658,0.75 27.6624,0.75 h 27.63 z m 572.8887,203.59084 c -0.3708,-0.3708 -0.6742,-115.57417 -0.6742,-256.00751 V -63.99005 h -37.5 -37.5 v -55.5 -55.5 h 138 138 v 55.5 55.5 h -37.4981 -37.498 l -0.252,255.75 -0.2519,255.75 -62.0758,0.25751 c -34.1417,0.14162 -62.3792,-0.0459 -62.75,-0.41667 z"
       id="path102"
       inkscape:connector-curvature="0" />
    <path
       style="fill:#f19644"
       d="m -700.75392,485.91399 c -43.37752,-3.57265 -87.43953,-22.28631 -123.59138,-52.49074 -10.67619,-8.91983 -28.63912,-27.4653 -36.73736,-37.92876 -6.97582,-9.01321 -337.38834,-485.69221 -336.95814,-486.12233 0.1523,-0.15238 25.3869,7.82771 56.0768,17.73353 30.6898,9.90582 56.1166,17.87416 56.5039,17.70742 0.3873,-0.16674 -54.7774,-76.12816 -122.5884,-168.80316 -67.8109,-92.675 -124.7216,-170.48229 -126.4682,-172.90509 l -3.1756,-4.4051 6.4235,4.35556 c 93.861,63.64384 736.22741,504.41614 742.9235,509.77152 45.37103,36.28673 80.14956,86.52019 93.96496,135.72122 6.60276,23.51452 7.53194,30.62957 7.50422,57.46189 -0.0279,26.97593 -1.18546,35.28893 -7.58916,54.5 -9.74534,29.23599 -30.7413,58.70924 -56.78432,79.71141 -42.50965,34.28157 -94.63311,50.21193 -149.50432,45.69263 z m 39.75154,-78.96433 c 24.19345,-4.90746 44.49341,-16.35857 61.85861,-34.89413 33.501,-35.75887 40.95408,-88.09943 18.7324,-131.55162 -31.88634,-62.35045 -111.17035,-82.72046 -169.03082,-43.42817 -8.15533,5.53818 -21.71319,18.56868 -27.99134,26.90254 -10.31989,13.69905 -18.46523,33.16288 -21.36753,51.05914 -6.84938,42.23484 10.86177,85.27969 45.97345,111.73305 12.77651,9.6259 33.46687,18.38713 49.98231,21.16476 10.08771,1.69658 31.05477,1.20273 41.84292,-0.98557 z m 1699.65708,45.42556 c -54.5491,-5.92808 -84.575,-30.95872 -94.4396,-78.7283 -3.5429,-17.15653 -3.6715,-26.71988 -3.3045,-245.63697 0.3315,-197.71569 0.5013,-216.20147 2.0572,-224 8.2407,-41.30294 28.1019,-65.6963 62.9771,-77.34792 18.3028,-6.11487 35.317,-7.60161 87.2098,-7.62061 43.6445,-0.016 61.5487,1.01299 76.5923,4.40179 41.6712,9.38715 64.0692,32.57545 74.1726,76.78949 2.0546,8.99131 2.1308,11.92019 2.4742,95.02725 l 0.3542,85.75 h -61.5466 -61.5467 V 10.72184 -59.56627 l -2.25,-4.46189 c -1.577,-3.12722 -3.5961,-5.20971 -6.75,-6.96189 -4.2581,-2.36559 -5.3333,-2.5 -20,-2.5 -14.6385,0 -15.739,0.13684 -19.7994,2.46191 -2.3647,1.35405 -5.2897,4.05405 -6.5,6 l -2.2006,3.53809 -0.2951,195.5 c -0.2019,133.78346 0.035,196.64108 0.7496,199.1146 1.4644,5.06695 4.7018,8.82486 9.4669,10.98907 3.4086,1.54811 6.6248,1.85241 19.5786,1.85241 20.0899,0 24.5043,-1.73876 28.4619,-11.21056 1.3401,-3.20745 1.5381,-13.85392 1.5381,-82.7134 v -79.03212 h 61.5431 61.5431 l -0.3152,93.75 c -0.3132,93.16179 -0.3295,93.81799 -2.596,104.58698 -8.3716,39.77747 -27.9355,63.01532 -62.7546,74.53934 -18.7373,6.20145 -22.2722,6.48135 -84.4204,6.68456 -31.075,0.10161 -58.075,0.0136 -60,-0.19561 z m -1393.33333,-5.03194 c -0.36667,-0.36666 -0.66667,-140.54166 -0.66667,-311.5 v -310.83333 h 62.5 62.5 v 311.5 311.5 h -61.8333 c -34.0084,0 -62.13337,-0.3 -62.50003,-0.66667 z m 170.00003,0 c -0.3667,-0.36666 -0.6667,-140.54166 -0.6667,-311.5 v -310.83333 h 89.9547 89.9547 l 0.5301,3.25 c 0.2916,1.7875 8.4197,85.15 18.0625,185.25 9.6428,100.1 17.6678,182.675 17.8334,183.5 0.5382,2.6817 1.4633,-6.27347 19.1625,-185.5 9.6136,-97.35 17.7516,-179.1375 18.0845,-181.75 l 0.6053,-4.75 h 90.4077 90.4078 l -0.2516,311.25 -0.2516,311.25 -61.25,0.25769 -61.25,0.25768 -0.079,-201.75768 c -0.0434,-110.96673 -0.2653,-201.30769 -0.4932,-200.75769 -0.4139,0.99894 -46.4278,398.56143 -46.4278,401.13844 0,1.13336 -9.8884,1.36156 -59,1.36156 -46.7129,0 -59,-0.26181 -59,-1.25717 0,-2.53181 -46.027,-404.27454 -46.428,-405.24283 -0.2277,-0.55 -0.4496,90.6875 -0.4931,202.75 l -0.0789,203.75 h -49.3333 c -27.1334,0 -49.6334,-0.3 -50,-0.66667 z M 293.6547,136.50995 v -311.5 h 98.4488 c 106.8334,0 111.6884,0.2067 130.087,5.53841 40.2485,11.66357 63.1571,40.79408 68.4439,87.03339 0.8009,7.0052 1.0301,41.4305 0.7783,116.9282 -0.3521,105.60051 -0.3852,107.12425 -2.5293,116.5 -10.1473,44.37202 -32.8977,67.28173 -76.7287,77.26613 -8.11,1.8474 -13.178,2.09147 -51.25,2.46815 l -42.25,0.41801 v 108.42385 108.42386 h -62.5 -62.5 z m 163.9874,-14.53593 c 2.9714,-1.64825 5.3363,-4.00528 7,-6.97664 l 2.5126,-4.48743 v -82.5 -82.5 l -2.5,-4.42978 c -1.6746,-2.96727 -3.9551,-5.19581 -6.9073,-6.75 -4.1188,-2.16835 -5.5424,-2.32022 -21.75,-2.32022 h -17.3427 v 96.61343 96.61342 l 17.25,-0.38678 c 16.1303,-0.36168 17.5413,-0.54837 21.7374,-2.876 z m 129.4255,322.28593 c 0.3238,-2.0625 18.6019,-141.225 40.618,-309.25 22.016,-168.025 40.2492,-306.5125 40.5182,-307.75 l 0.489,-2.25 h 84.981 c 67.2984,0 84.9886,0.26009 85.0177,1.25 0.02,0.6875 18.376,140.65677 40.7905,311.04282 22.4146,170.38605 40.548,309.99855 40.2965,310.25 -0.2514,0.25145 -28.006,0.45718 -61.6769,0.45718 h -61.2198 l -0.603,-4.25 c -0.3317,-2.3375 -2.4066,-21.35 -4.6109,-42.25 -2.2044,-20.9 -4.2545,-39.4625 -4.5559,-41.25 l -0.5479,-3.25 h -38.8934 -38.8935 l -0.5818,4.25 c -0.4924,3.59611 -8.5407,84.90055 -8.5407,86.27822 0,0.25948 -25.4646,0.47178 -56.5879,0.47178 h -56.5879 z m 188.6344,-197.5 c 0.1224,-3.23259 -27.5553,-265.74993 -28.0184,-265.74943 -0.4909,5.2e-4 -27.1673,261.37462 -27.072,265.24943 0.04,1.6232 2.0357,1.75 27.5431,1.75 21.3081,0 27.5107,-0.28145 27.5473,-1.25 z m 572.9527,-54.75 v -256 h -38 -38 v -55.5 -55.5 h 138 138 v 55.5 55.5 h -38 -38 v 256 256 h -62 -62 z"
       id="path100"
       inkscape:connector-curvature="0" />
    <path
       style="fill:#ed7101"
       d="m -708.3453,484.92325 c -59.66261,-7.64682 -115.8112,-41.30982 -154.97579,-92.9133 -3.13068,-4.125 -79.40014,-113.925 -169.48771,-244 -90.0875,-130.075 -164.2324,-237.05059 -164.7665,-237.72354 -0.6903,-0.86986 0.2866,-0.79695 3.3795,0.25223 18.8596,6.39753 109.4127,35.24248 109.7084,34.94672 0.2065,-0.20643 -2.0097,-3.66035 -4.9248,-7.67537 -10.2714,-14.14683 -242.2741,-331.34497 -244.8367,-334.74488 l -2.5964,-3.44484 6.5,4.40142 c 78.1391,52.91124 733.47951,502.54066 740.71202,508.20293 45.79347,35.8514 80.99319,86.64096 95.3208,137.53807 6.09518,21.65241 7.41938,31.58224 7.43419,55.74726 0.0151,24.71647 -1.52481,35.40359 -7.91037,54.89696 -20.66112,63.07282 -85.54038,113.87521 -158.40849,124.03855 -12.09879,1.68749 -43.58159,1.96025 -55.14815,0.47779 z m 37.02623,-75.95234 c 40.86623,-5.01097 74.81525,-29.29536 92.4487,-66.13033 31.67341,-66.16339 -5.45307,-144.53842 -77.15519,-162.87673 -27.98184,-7.15655 -61.47221,-2.36141 -86.67881,12.41064 -26.63833,15.6111 -46.34653,41.87421 -54.28605,72.3415 -3.47953,13.35242 -4.33594,34.80625 -1.90787,47.79396 3.25494,17.41061 9.24839,32.20565 18.7551,46.29763 23.59492,34.9752 67.52888,55.2269 108.82412,50.16333 z m 1709.97377,43.40431 c -54.5491,-5.92808 -84.575,-30.95872 -94.4396,-78.7283 -3.5429,-17.15653 -3.6715,-26.71988 -3.3045,-245.63697 0.3315,-197.71569 0.5013,-216.20147 2.0572,-224 8.2407,-41.30294 28.1019,-65.6963 62.9771,-77.34792 18.3028,-6.11487 35.317,-7.60161 87.2098,-7.62061 43.6445,-0.016 61.5487,1.01299 76.5923,4.40179 41.6712,9.38715 64.0692,32.57545 74.1726,76.78949 2.0546,8.99131 2.1308,11.92019 2.4742,95.02725 l 0.3542,85.75 h -61.5466 -61.5467 V 10.72184 -59.56627 l -2.25,-4.46189 c -1.577,-3.12722 -3.5961,-5.20971 -6.75,-6.96189 -4.2581,-2.36559 -5.3333,-2.5 -20,-2.5 -14.6385,0 -15.739,0.13684 -19.7994,2.46191 -2.3647,1.35405 -5.2897,4.05405 -6.5,6 l -2.2006,3.53809 -0.2951,195.5 c -0.2019,133.78346 0.035,196.64108 0.7496,199.1146 1.4644,5.06695 4.7018,8.82486 9.4669,10.98907 3.4086,1.54811 6.6248,1.85241 19.5786,1.85241 20.0899,0 24.5043,-1.73876 28.4619,-11.21056 1.3401,-3.20745 1.5381,-13.85392 1.5381,-82.7134 v -79.03212 h 61.5431 61.5431 l -0.3152,93.75 c -0.3132,93.16179 -0.3295,93.81799 -2.596,104.58698 -8.3716,39.77747 -27.9355,63.01532 -62.7546,74.53934 -18.7373,6.20145 -22.2722,6.48135 -84.4204,6.68456 -31.075,0.10161 -58.075,0.0136 -60,-0.19561 z m -1393.33333,-5.03194 c -0.36667,-0.36666 -0.66667,-140.54166 -0.66667,-311.5 v -310.83333 h 62.5 62.5 v 311.5 311.5 h -61.8333 c -34.0084,0 -62.13337,-0.3 -62.50003,-0.66667 z m 170.00003,0 c -0.3667,-0.36666 -0.6667,-140.54166 -0.6667,-311.5 v -310.83333 h 89.9547 89.9547 l 0.5301,3.25 c 0.2916,1.7875 8.4197,85.15 18.0625,185.25 9.6428,100.1 17.6678,182.675 17.8334,183.5 0.5382,2.6817 1.4633,-6.27347 19.1625,-185.5 9.6136,-97.35 17.7516,-179.1375 18.0845,-181.75 l 0.6053,-4.75 h 90.4077 90.4078 l -0.2516,311.25 -0.2516,311.25 -61.25,0.25769 -61.25,0.25768 -0.079,-201.75768 c -0.0434,-110.96673 -0.2653,-201.30769 -0.4932,-200.75769 -0.4139,0.99894 -46.4278,398.56143 -46.4278,401.13844 0,1.13336 -9.8884,1.36156 -59,1.36156 -46.7129,0 -59,-0.26181 -59,-1.25717 0,-2.53181 -46.027,-404.27454 -46.428,-405.24283 -0.2277,-0.55 -0.4496,90.6875 -0.4931,202.75 l -0.0789,203.75 h -49.3333 c -27.1334,0 -49.6334,-0.3 -50,-0.66667 z M 293.6547,136.50995 v -311.5 h 98.4488 c 106.8334,0 111.6884,0.2067 130.087,5.53841 40.2485,11.66357 63.1571,40.79408 68.4439,87.03339 0.8009,7.0052 1.0301,41.4305 0.7783,116.9282 -0.3521,105.60051 -0.3852,107.12425 -2.5293,116.5 -10.1473,44.37202 -32.8977,67.28173 -76.7287,77.26613 -8.11,1.8474 -13.178,2.09147 -51.25,2.46815 l -42.25,0.41801 v 108.42385 108.42386 h -62.5 -62.5 z m 163.9874,-14.53593 c 2.9714,-1.64825 5.3363,-4.00528 7,-6.97664 l 2.5126,-4.48743 v -82.5 -82.5 l -2.5,-4.42978 c -1.6746,-2.96727 -3.9551,-5.19581 -6.9073,-6.75 -4.1188,-2.16835 -5.5424,-2.32022 -21.75,-2.32022 h -17.3427 v 96.61343 96.61342 l 17.25,-0.38678 c 16.1303,-0.36168 17.5413,-0.54837 21.7374,-2.876 z m 129.4255,322.28593 c 0.3238,-2.0625 18.6019,-141.225 40.618,-309.25 22.016,-168.025 40.2492,-306.5125 40.5182,-307.75 l 0.489,-2.25 h 84.981 c 67.2984,0 84.9886,0.26009 85.0177,1.25 0.02,0.6875 18.376,140.65677 40.7905,311.04282 22.4146,170.38605 40.548,309.99855 40.2965,310.25 -0.2514,0.25145 -28.006,0.45718 -61.6769,0.45718 h -61.2198 l -0.603,-4.25 c -0.3317,-2.3375 -2.4066,-21.35 -4.6109,-42.25 -2.2044,-20.9 -4.2545,-39.4625 -4.5559,-41.25 l -0.5479,-3.25 h -38.8934 -38.8935 l -0.5818,4.25 c -0.4924,3.59611 -8.5407,84.90055 -8.5407,86.27822 0,0.25948 -25.4646,0.47178 -56.5879,0.47178 h -56.5879 z m 188.6344,-197.5 c 0.1224,-3.23259 -27.5553,-265.74993 -28.0184,-265.74943 -0.4909,5.2e-4 -27.1673,261.37462 -27.072,265.24943 0.04,1.6232 2.0357,1.75 27.5431,1.75 21.3081,0 27.5107,-0.28145 27.5473,-1.25 z m 572.9527,-54.75 v -256 h -38 -38 v -55.5 -55.5 h 138 138 v 55.5 55.5 h -38 -38 v 256 256 h -62 -62 z"
       id="path98"
       inkscape:connector-curvature="0" />
    <path
       style="fill:#666664"
       d="m 1038.6547,452.37522 c -54.5491,-5.92808 -84.575,-30.95872 -94.4396,-78.7283 -3.5429,-17.15653 -3.6715,-26.71988 -3.3045,-245.63697 0.3315,-197.71569 0.5013,-216.20147 2.0572,-224 8.2407,-41.30294 28.1019,-65.6963 62.9771,-77.34792 18.3028,-6.11487 35.317,-7.60161 87.2098,-7.62061 43.6445,-0.016 61.5487,1.01299 76.5923,4.40179 41.6712,9.38715 64.0692,32.57545 74.1726,76.78949 2.0546,8.99131 2.1308,11.92019 2.4742,95.02725 l 0.3542,85.75 h -61.5466 -61.5467 V 10.72184 -59.56627 l -2.25,-4.46189 c -1.577,-3.12722 -3.5961,-5.20971 -6.75,-6.96189 -4.2581,-2.36559 -5.3333,-2.5 -20,-2.5 -14.6385,0 -15.739,0.13684 -19.7994,2.46191 -2.3647,1.35405 -5.2897,4.05405 -6.5,6 l -2.2006,3.53809 -0.2951,195.5 c -0.2019,133.78346 0.035,196.64108 0.7496,199.1146 1.4644,5.06695 4.7018,8.82486 9.4669,10.98907 3.4086,1.54811 6.6248,1.85241 19.5786,1.85241 20.0899,0 24.5043,-1.73876 28.4619,-11.21056 1.3401,-3.20745 1.5381,-13.85392 1.5381,-82.7134 v -79.03212 h 61.5431 61.5431 l -0.3152,93.75 c -0.3132,93.16179 -0.3295,93.81799 -2.596,104.58698 -8.3716,39.77747 -27.9355,63.01532 -62.7546,74.53934 -18.7373,6.20145 -22.2722,6.48135 -84.4204,6.68456 -31.075,0.10161 -58.075,0.0136 -60,-0.19561 z m -1393.33333,-5.03194 c -0.36667,-0.36666 -0.66667,-140.54166 -0.66667,-311.5 v -310.83333 h 62.5 62.5 v 311.5 311.5 h -61.8333 c -34.0084,0 -62.13337,-0.3 -62.50003,-0.66667 z m 170.00003,0 c -0.3667,-0.36666 -0.6667,-140.54166 -0.6667,-311.5 v -310.83333 h 89.9547 89.9547 l 0.5301,3.25 c 0.2916,1.7875 8.4197,85.15 18.0625,185.25 9.6428,100.1 17.6678,182.675 17.8334,183.5 0.5382,2.6817 1.4633,-6.27347 19.1625,-185.5 9.6136,-97.35 17.7516,-179.1375 18.0845,-181.75 l 0.6053,-4.75 h 90.4077 90.4078 l -0.2516,311.25 -0.2516,311.25 -61.25,0.25769 -61.25,0.25768 -0.079,-201.75768 c -0.0434,-110.96673 -0.2653,-201.30769 -0.4932,-200.75769 -0.4139,0.99894 -46.4278,398.56143 -46.4278,401.13844 0,1.13336 -9.8884,1.36156 -59,1.36156 -46.7129,0 -59,-0.26181 -59,-1.25717 0,-2.53181 -46.027,-404.27454 -46.428,-405.24283 -0.2277,-0.55 -0.4496,90.6875 -0.4931,202.75 l -0.0789,203.75 h -49.3333 c -27.1334,0 -49.6334,-0.3 -50,-0.66667 z M 293.6547,136.50995 v -311.5 h 98.4488 c 106.8334,0 111.6884,0.2067 130.087,5.53841 40.2485,11.66357 63.1571,40.79408 68.4439,87.03339 0.8009,7.0052 1.0301,41.4305 0.7783,116.9282 -0.3521,105.60051 -0.3852,107.12425 -2.5293,116.5 -10.1473,44.37202 -32.8977,67.28173 -76.7287,77.26613 -8.11,1.8474 -13.178,2.09147 -51.25,2.46815 l -42.25,0.41801 v 108.42385 108.42386 h -62.5 -62.5 z m 163.9874,-14.53593 c 2.9714,-1.64825 5.3363,-4.00528 7,-6.97664 l 2.5126,-4.48743 v -82.5 -82.5 l -2.5,-4.42978 c -1.6746,-2.96727 -3.9551,-5.19581 -6.9073,-6.75 -4.1188,-2.16835 -5.5424,-2.32022 -21.75,-2.32022 h -17.3427 v 96.61343 96.61342 l 17.25,-0.38678 c 16.1303,-0.36168 17.5413,-0.54837 21.7374,-2.876 z m 129.4255,322.28593 c 0.3238,-2.0625 18.6019,-141.225 40.618,-309.25 22.016,-168.025 40.2492,-306.5125 40.5182,-307.75 l 0.489,-2.25 h 84.981 c 67.2984,0 84.9886,0.26009 85.0177,1.25 0.02,0.6875 18.376,140.65677 40.7905,311.04282 22.4146,170.38605 40.548,309.99855 40.2965,310.25 -0.2514,0.25145 -28.006,0.45718 -61.6769,0.45718 h -61.2198 l -0.603,-4.25 c -0.3317,-2.3375 -2.4066,-21.35 -4.6109,-42.25 -2.2044,-20.9 -4.2545,-39.4625 -4.5559,-41.25 l -0.5479,-3.25 h -38.8934 -38.8935 l -0.5818,4.25 c -0.4924,3.59611 -8.5407,84.90055 -8.5407,86.27822 0,0.25948 -25.4646,0.47178 -56.5879,0.47178 h -56.5879 z m 188.6344,-197.5 c 0.1224,-3.23259 -27.5553,-265.74993 -28.0184,-265.74943 -0.4909,5.2e-4 -27.1673,261.37462 -27.072,265.24943 0.04,1.6232 2.0357,1.75 27.5431,1.75 21.3081,0 27.5107,-0.28145 27.5473,-1.25 z m 572.9527,-54.75 v -256 h -38 -38 v -55.5 -55.5 h 138 138 v 55.5 55.5 h -38 -38 v 256 256 h -62 -62 z"
       id="path96"
       inkscape:connector-curvature="0" />
    <path
       style="fill:#363635"
       d="m 1041.6547,452.32501 c -19.187,-1.43061 -36.7115,-6.06416 -51.5,-13.6168 -8.481,-4.33135 -11.4434,-6.55708 -19.5024,-14.65269 C 956.9795,410.32058 949.782,396.86298 945.1327,376.34 940.6516,356.55976 940.5,347.53565 940.9009,124.50995 c 0.3763,-209.3095 0.3845,-210.03617 2.5051,-221 8.8221,-45.61144 32.7614,-70.7361 76.8058,-80.60885 9.5087,-2.13142 12.4321,-2.24636 66.9429,-2.63184 60.7112,-0.42933 69.3606,-0.005 86.002,4.21612 19.5759,4.96585 34.1716,13.09844 46.0522,25.65991 11.6442,12.31151 18.4435,25.44832 22.9621,44.36466 4.1408,17.33462 4.4837,25.59218 4.4837,107.96059 v 78.53941 h -61 -61 V 13.55917 c 0,-45.10538 -0.3629,-69.14275 -1.0953,-72.5581 -1.3688,-6.3823 -6.6448,-12.2837 -12.4047,-13.87492 -5.2466,-1.44944 -28.2524,-1.43398 -32.6008,0.0219 -5.6624,1.89584 -9.594,5.49916 -11.5599,10.5947 -1.7629,4.56919 -1.8393,12.78344 -1.8393,197.7672 0,106.15 0.3597,194.69712 0.7993,196.77138 0.9667,4.56096 5.9848,10.53153 10.403,12.37758 3.9829,1.66418 33.7427,1.88938 37.9826,0.28742 3.8502,-1.45471 8.2324,-5.7286 10.1883,-9.93638 1.4509,-3.12159 1.6592,-12.0682 1.9268,-82.75 l 0.3,-79.25 h 61.0023 61.0023 l -0.348,92.75 c -0.3152,84.0071 -0.5168,93.6455 -2.1384,102.25 -9.8639,52.33895 -40.017,78.80711 -95.6182,83.93298 -10.2698,0.94677 -97.3334,1.25196 -109,0.38208 z m -1396,-316.31506 v -311 h 62 62 v 311 311 h -62 -62 z m 170,0 v -311 h 89.3848 89.3848 l 0.6244,5.25 c 0.3435,2.8875 8.4963,86.7 18.1175,186.25 9.6212,99.55 17.6352,181.675 17.809,182.5 0.1737,0.825 0.6321,-0.75 1.0186,-3.5 0.7623,-5.42469 36.6609,-366.87957 36.6609,-369.13082 0,-1.14877 14.4884,-1.36918 90,-1.36918 h 90 v 311 311 h -61 -61 V 244.34328 c 0,-111.46666 -0.1735,-202.47916 -0.3857,-202.25 -0.2121,0.22917 -10.8894,91.42917 -23.7273,202.66667 l -23.3416,202.25 h -58.5649 -58.565 l -23.313,-204.25 C -74.0649,130.42245 -84.7334,38.32245 -84.9505,38.09328 c -0.2172,-0.22916 -0.3948,91.68334 -0.3948,204.25 v 204.66667 h -49.5 -49.5 z m 478,-0.0438 v -311.04377 l 102.75,0.37124 c 91.1205,0.32923 103.712,0.56106 111.25,2.04828 47.6469,9.40062 72.2238,33.86936 81.6537,81.29446 1.6022,8.05744 1.7971,18.3927 2.1193,112.37356 0.2523,73.60078 0.02,106.81641 -0.8044,114.98018 -4.7668,47.20569 -27.3981,77.36824 -66.7151,88.91675 -17.1799,5.0462 -21.5556,5.4439 -64.5035,5.86253 l -40.75,0.3972 v 107.92167 107.92167 h -62.5 -62.5 z m 160.6089,-12.43272 c 4.9386,-1.46661 8.8897,-4.73323 11.5189,-9.52351 1.1243,-2.04835 1.4225,-17.1148 1.6507,-83.39598 0.3131,-90.92181 0.4588,-88.78996 -6.4595,-94.4926 -4.9226,-4.0576 -10.668,-5.11139 -27.8682,-5.11139 h -14.4508 v 97 97 h 15.3185 c 10.5965,0 16.8511,-0.45514 20.2904,-1.47649 z m 133.0385,321.22652 c 0.2036,-1.2375 18.3629,-139.5 40.354,-307.25 21.9911,-167.75 40.2517,-306.6875 40.5791,-308.75 l 0.5953,-3.75 h 84.6975 84.6974 l 40.7437,310.25 c 22.4091,170.6375 40.7307,310.5875 40.7147,311 -0.016,0.4125 -27.7041,0.75 -61.5291,0.75 -57.8836,0 -61.5033,-0.10291 -61.5556,-1.75 -0.031,-0.9625 -2.1681,-21.1 -4.75,-44.75 l -4.6944,-43 h -39.483 -39.4829 l -4.2034,42.5 c -2.3119,23.375 -4.232,43.5125 -4.2671,44.75 l -0.0636,2.25 H 643.2934 586.932 Z m 188.7162,-198.25 c -0.8847,-12.97057 -28.0194,-268.21684 -28.4589,-267.70221 -0.3298,0.38621 -6.5426,59.87721 -13.8062,132.20221 -7.2636,72.325 -13.4586,132.9696 -13.7668,134.76577 l -0.5602,3.26576 28.3643,-0.26576 c 27.6609,-0.25918 28.3608,-0.31536 28.2278,-2.26577 z m 572.6364,-55 v -255.5 h -38 -38 v -55.5 -55.5 h 138 138 v 55.5 55.5 h -38 -38 v 255.5 255.5 h -62 -62 z"
       id="path94"
       inkscape:connector-curvature="0" />
  </g>
</svg>
