<?xml version="1.0" encoding="UTF-8" standalone="no"?>
<!-- Created with Inkscape (http://www.inkscape.org/) -->

<svg
   xmlns:dc="http://purl.org/dc/elements/1.1/"
   xmlns:cc="http://creativecommons.org/ns#"
   xmlns:rdf="http://www.w3.org/1999/02/22-rdf-syntax-ns#"
   xmlns:svg="http://www.w3.org/2000/svg"
   xmlns="http://www.w3.org/2000/svg"
   xmlns:sodipodi="http://sodipodi.sourceforge.net/DTD/sodipodi-0.dtd"
   xmlns:inkscape="http://www.inkscape.org/namespaces/inkscape"
   width="45.212002mm"
   height="45.147076mm"
   viewBox="0 0 45.212002 45.147076"
   version="1.1"
   id="svg8"
   inkscape:version="0.92.4 (5da689c313, 2019-01-14)"
   sodipodi:docname="linkedin.svg">
  <defs
     id="defs2" />
  <sodipodi:namedview
     id="base"
     pagecolor="#ffffff"
     bordercolor="#666666"
     borderopacity="1.0"
     inkscape:pageopacity="0.0"
     inkscape:pageshadow="2"
     inkscape:zoom="5.6"
     inkscape:cx="132.49142"
     inkscape:cy="49.050022"
     inkscape:document-units="mm"
     inkscape:current-layer="layer1"
     showgrid="false"
     fit-margin-top="0"
     fit-margin-left="0"
     fit-margin-right="0"
     fit-margin-bottom="0"
     inkscape:window-width="1920"
     inkscape:window-height="1001"
     inkscape:window-x="-9"
     inkscape:window-y="-9"
     inkscape:window-maximized="1"
     inkscape:snap-bbox="true"
     inkscape:snap-bbox-midpoints="true"
     showguides="true"
     inkscape:guide-bbox="true">
    <sodipodi:guide
       position="1e-06,22.405183"
       orientation="0,1"
       id="guide4541"
       inkscape:locked="false"
       inkscape:label=""
       inkscape:color="rgb(0,0,255)" />
    <sodipodi:guide
       position="26.751627,22.405558"
       orientation="1,0"
       id="guide4543"
       inkscape:locked="false"
       inkscape:label=""
       inkscape:color="rgb(0,0,255)" />
  </sodipodi:namedview>
  <metadata
     id="metadata5">
    <rdf:RDF>
      <cc:Work
         rdf:about="">
        <dc:format>image/svg+xml</dc:format>
        <dc:type
           rdf:resource="http://purl.org/dc/dcmitype/StillImage" />
        <dc:title></dc:title>
      </cc:Work>
    </rdf:RDF>
  </metadata>
  <g
     inkscape:label="Layer 1"
     inkscape:groupmode="layer"
     id="layer1"
     transform="translate(-53.078892,-105.94834)">
    <path
       style="fill:#2867b2;fill-opacity:1;stroke-width:0.08466667"
       d="m 55.344032,150.99473 c -0.477163,-0.14954 -1.138594,-0.58101 -1.470944,-0.95954 -0.147849,-0.16839 -0.387027,-0.55562 -0.531506,-0.86051 l -0.26269,-0.55434 v -20.11272 -20.11273 l 0.319392,-0.64624 c 0.363448,-0.73539 0.832391,-1.20172 1.575351,-1.56659 l 0.475924,-0.23372 h 20.235334 20.23533 l 0.47593,0.23372 c 0.74296,0.36487 1.2119,0.8312 1.57535,1.56659 l 0.31939,0.64624 v 20.11712 20.11711 l -0.31939,0.64625 c -0.36345,0.73539 -0.83239,1.20172 -1.57535,1.56658 l -0.47593,0.23372 -20.10833,0.0159 c -16.53495,0.013 -20.17222,-0.004 -20.467861,-0.0968 z m 11.154531,-17.31806 v -10.83733 h -3.38667 -3.38667 v 10.83733 10.83734 h 3.38667 3.38667 z m 10.9445,4.55084 c 0.035,-6.98835 0.0275,-6.88964 0.61217,-8.07788 0.38239,-0.77712 1.00567,-1.36337 1.74959,-1.64564 0.463,-0.17567 0.68238,-0.20365 1.59699,-0.20365 1.03058,0 1.07629,0.008 1.63347,0.28227 0.94089,0.46331 1.45205,1.2751 1.71482,2.7234 0.0902,0.49739 0.11585,1.99729 0.11817,6.9215 l 0.003,6.2865 h 3.39169 3.39169 l -0.0339,-7.4295 c -0.0327,-7.18152 -0.04,-7.46157 -0.21656,-8.39029 -0.4005,-2.10626 -0.96717,-3.33062 -2.04562,-4.41982 -1.19288,-1.20476 -2.55404,-1.76001 -4.78061,-1.95011 -2.28968,-0.19549 -3.93157,0.21229 -5.50639,1.36754 -0.54323,0.3985 -1.31174,1.20851 -1.64467,1.7335 l -0.26033,0.4105 v -1.49825 -1.49824 h -3.25971 -3.25967 v 10.83733 10.83734 h 3.38219 3.38219 z M 64.289523,119.7156 c 2.79093,-0.86864 3.6499,-4.40898 1.57349,-6.48538 -0.78183,-0.78184 -1.64519,-1.13941 -2.75112,-1.13941 -2.2077,0 -3.89467,1.68179 -3.89467,3.88271 0,1.74327 1.06051,3.21743 2.68918,3.73808 0.65972,0.21089 1.71269,0.21266 2.38312,0.004 z"
       id="path3724"
       inkscape:connector-curvature="0"
       sodipodi:nodetypes="ccccccccccccsccccccccccccccccccsccscccccccccssccccccccccsccsscc" />
  </g>
</svg>
